<?xml version="1.0" standalone="no"?>
<!DOCTYPE svg PUBLIC "-//W3C//DTD SVG 20010904//EN"
 "http://www.w3.org/TR/2001/REC-SVG-20010904/DTD/svg10.dtd">
<svg version="1.0" xmlns="http://www.w3.org/2000/svg"
 width="2000.000000pt" height="2000.000000pt" viewBox="0 0 2000.000000 2000.000000"
 preserveAspectRatio="xMidYMid meet">
<metadata>
Created by potrace 1.14, written by Peter Selinger 2001-2017
</metadata>
<g transform="translate(0.000000,2000.000000) scale(0.100000,-0.100000)"
fill="#000000" stroke="none">
<path d="M11060 18032 c0 -6 -9 -9 -20 -7 -11 2 -22 -1 -26 -6 -4 -6 -11 -6
-20 2 -11 9 -14 8 -14 -2 0 -11 -2 -11 -10 1 -9 13 -10 13 -10 0 0 -13 -1 -13
-10 0 -7 11 -10 12 -10 2 0 -9 -7 -11 -21 -7 -15 5 -19 4 -15 -4 5 -8 0 -8
-19 -1 -19 7 -24 7 -19 -2 5 -8 2 -9 -9 -5 -9 3 -19 2 -23 -4 -4 -6 -11 -6
-20 2 -11 9 -14 9 -14 -1 0 -10 -3 -10 -15 0 -11 9 -15 9 -15 1 0 -7 -4 -10
-9 -6 -5 3 -12 1 -16 -5 -4 -7 -12 -7 -25 0 -13 7 -19 6 -24 -6 -4 -11 -10
-12 -25 -4 -14 7 -22 7 -26 0 -5 -8 -11 -8 -20 0 -9 7 -16 6 -25 -5 -10 -12
-16 -13 -28 -3 -13 11 -14 11 -7 -1 6 -11 4 -13 -8 -8 -9 3 -19 2 -23 -4 -4
-6 -11 -6 -20 2 -10 8 -14 8 -14 1 0 -6 -7 -9 -15 -6 -8 4 -15 1 -15 -6 0 -9
-4 -9 -17 1 -13 11 -15 11 -9 1 6 -10 3 -13 -10 -11 -11 2 -25 0 -33 -5 -10
-7 -12 -5 -6 5 5 8 -2 5 -15 -6 -13 -11 -20 -14 -16 -7 4 6 2 12 -3 12 -6 0
-11 -5 -11 -11 0 -5 -4 -7 -10 -4 -5 3 -10 0 -10 -7 0 -10 -2 -10 -9 1 -5 8
-11 9 -15 3 -4 -6 -15 -9 -26 -7 -11 2 -20 0 -20 -4 0 -4 -13 -7 -30 -6 -16 1
-30 -2 -30 -7 0 -5 -4 -6 -10 -3 -5 3 -10 0 -10 -7 0 -9 -3 -9 -10 2 -7 11
-10 11 -10 2 0 -7 -4 -11 -9 -7 -5 3 -12 1 -15 -4 -4 -5 -17 -8 -31 -6 -14 1
-33 -3 -42 -10 -9 -7 -23 -11 -30 -8 -7 3 -13 0 -13 -6 0 -6 -5 -11 -11 -11
-5 0 -7 6 -3 13 6 9 5 9 -8 0 -8 -7 -18 -10 -21 -6 -4 3 -7 2 -7 -4 0 -6 -10
-10 -22 -9 -13 1 -31 -4 -42 -10 -10 -7 -24 -10 -31 -8 -7 3 -16 1 -20 -5 -3
-6 -14 -11 -25 -11 -10 0 -21 -7 -24 -16 -5 -13 -9 -14 -20 -5 -9 8 -16 8 -20
2 -4 -5 -15 -8 -26 -6 -13 3 -18 0 -14 -7 5 -7 1 -9 -9 -5 -10 3 -17 3 -17 -2
0 -8 -66 -26 -82 -23 -5 1 -8 -3 -8 -9 0 -6 -7 -9 -15 -5 -8 3 -15 0 -15 -5 0
-6 -9 -9 -20 -6 -11 3 -18 0 -17 -7 1 -6 -7 -9 -17 -8 -11 2 -25 -4 -32 -13
-8 -10 -14 -12 -19 -6 -4 8 -11 6 -21 -4 -9 -8 -24 -15 -35 -15 -10 0 -19 -5
-19 -11 0 -5 -4 -8 -9 -5 -5 4 -12 0 -14 -6 -4 -10 -6 -10 -6 0 -1 10 -5 10
-17 -2 -8 -9 -20 -14 -25 -11 -5 4 -9 1 -9 -5 0 -7 -7 -10 -15 -6 -8 3 -15 2
-15 -2 0 -4 -9 -13 -21 -20 -12 -8 -18 -9 -14 -3 9 16 -4 13 -22 -4 -8 -8 -18
-13 -23 -10 -4 3 -11 -2 -14 -11 -3 -8 -11 -12 -17 -8 -7 4 -18 -1 -26 -11 -7
-11 -13 -14 -13 -7 0 12 -69 -24 -82 -43 -5 -6 -8 -5 -8 4 0 11 -4 10 -19 -3
-11 -10 -25 -15 -32 -10 -8 4 -10 3 -5 -4 6 -11 -6 -16 -26 -13 -5 0 -8 -3 -8
-8 0 -10 -42 -27 -48 -20 -2 2 -8 -4 -13 -13 -6 -10 -19 -18 -29 -18 -10 0
-22 -5 -25 -10 -4 -6 -10 -8 -15 -5 -4 3 -11 -2 -14 -11 -4 -9 -13 -14 -21
-10 -9 3 -15 0 -15 -10 0 -8 -5 -12 -11 -9 -6 4 -17 -1 -25 -11 -9 -11 -13
-13 -9 -4 4 8 -1 6 -9 -4 -9 -11 -16 -17 -16 -13 0 4 -10 1 -23 -8 -13 -8 -27
-12 -32 -8 -4 5 -5 2 -1 -4 4 -7 2 -14 -3 -14 -6 -1 -17 -2 -23 -3 -7 -1 -12
-8 -10 -15 2 -9 -4 -12 -18 -8 -11 3 -18 2 -15 -3 5 -8 -10 -17 -29 -18 -5 0
-12 -5 -15 -10 -3 -6 -13 -12 -21 -14 -8 -2 -25 -13 -36 -25 -12 -12 -24 -19
-27 -16 -6 5 -19 -4 -58 -39 -10 -10 -23 -18 -27 -18 -4 0 -23 -11 -42 -25
-18 -13 -36 -22 -41 -20 -4 3 -10 -4 -14 -15 -3 -11 -11 -20 -16 -20 -6 0 -7
5 -3 12 4 7 3 8 -4 4 -7 -4 -12 -14 -12 -22 0 -8 -4 -12 -10 -9 -5 3 -22 -7
-37 -22 -14 -15 -23 -21 -19 -13 5 9 2 8 -7 -2 -8 -10 -18 -18 -22 -18 -4 0
-13 -7 -19 -14 -6 -8 -17 -16 -25 -18 -20 -4 -58 -42 -53 -52 3 -5 0 -6 -5 -3
-6 4 -20 -2 -33 -13 -12 -10 -28 -16 -36 -13 -8 3 -14 0 -14 -7 0 -6 -5 -8
-10 -5 -6 4 -17 1 -25 -5 -12 -10 -15 -10 -15 -1 0 8 -6 7 -16 -3 -8 -9 -19
-14 -24 -11 -5 3 -11 -1 -13 -7 -4 -10 -6 -10 -6 0 -1 10 -6 10 -23 1 -13 -7
-26 -17 -30 -23 -6 -8 -8 -8 -8 0 0 14 -28 11 -58 -5 -13 -7 -36 -13 -52 -13
-16 -1 -27 -4 -25 -8 3 -4 -4 -10 -15 -13 -11 -3 -18 -2 -16 2 3 4 -4 7 -14 7
-10 0 -17 -3 -14 -7 5 -8 -77 -30 -88 -23 -4 3 -8 0 -8 -6 0 -6 -4 -9 -9 -5
-5 3 -13 1 -16 -5 -5 -8 -11 -7 -21 1 -12 10 -14 10 -12 -1 2 -7 -8 -14 -22
-16 -14 -2 -34 -6 -45 -8 -11 -2 -24 -4 -28 -5 -5 0 -6 -5 -3 -9 3 -4 -13 -7
-35 -6 -25 1 -37 -2 -32 -9 4 -6 0 -8 -10 -4 -9 3 -19 2 -22 -3 -3 -5 -14 -7
-25 -5 -13 3 -18 0 -14 -7 5 -7 0 -9 -14 -6 -12 4 -22 2 -22 -3 0 -5 -3 -8 -7
-8 -25 4 -53 -2 -48 -11 3 -5 0 -7 -8 -4 -7 2 -27 -1 -43 -7 -16 -7 -33 -11
-38 -10 -4 1 -25 -4 -45 -10 -20 -7 -46 -14 -59 -15 -13 -2 -30 -8 -37 -14
-10 -8 -15 -8 -20 0 -5 8 -11 8 -19 1 -7 -6 -17 -7 -21 -3 -5 4 -5 2 -2 -4 4
-7 0 -14 -8 -18 -8 -3 -15 -1 -15 4 0 5 -7 7 -15 4 -8 -4 -12 -11 -8 -17 3 -6
1 -7 -6 -3 -6 4 -19 2 -28 -6 -14 -11 -16 -11 -9 0 7 11 4 12 -13 3 -12 -7
-26 -9 -31 -6 -6 3 -10 2 -10 -3 0 -5 -19 -12 -42 -16 -23 -4 -49 -12 -57 -19
-12 -10 -13 -9 -6 3 7 12 6 13 -7 3 -8 -7 -18 -10 -21 -6 -4 3 -7 1 -7 -5 0
-7 -3 -11 -7 -11 -25 4 -63 -2 -59 -10 3 -4 -6 -7 -19 -5 -14 1 -25 -1 -25 -6
0 -4 -9 -6 -20 -3 -11 3 -27 -2 -37 -12 -12 -12 -18 -14 -21 -6 -3 9 -10 7
-25 -6 -14 -12 -18 -13 -12 -3 8 13 6 13 -8 2 -9 -8 -21 -11 -27 -7 -5 3 -10
1 -10 -5 0 -7 -8 -9 -21 -5 -16 5 -19 4 -14 -6 6 -9 4 -11 -8 -6 -9 3 -19 1
-23 -5 -4 -7 -9 -6 -15 3 -7 11 -9 10 -9 -5 0 -15 -3 -16 -14 -7 -10 8 -15 9
-18 1 -2 -6 -13 -12 -26 -13 -12 0 -22 -4 -22 -8 0 -3 -23 -9 -51 -12 -28 -4
-58 -12 -67 -19 -13 -11 -14 -11 -7 2 7 12 6 13 -7 3 -8 -7 -27 -14 -41 -15
-15 -1 -29 -9 -32 -16 -4 -11 -8 -12 -20 -2 -10 8 -15 9 -15 2 0 -6 -9 -9 -20
-7 -11 2 -20 1 -20 -3 0 -4 -16 -12 -35 -18 -23 -7 -35 -8 -35 -1 0 6 -8 4
-17 -4 -10 -8 -27 -14 -38 -14 -11 0 -23 -3 -26 -8 -3 -5 -20 -9 -37 -11 -17
-1 -34 -5 -38 -8 -3 -4 -13 -4 -22 -1 -11 5 -13 3 -7 -7 6 -10 3 -12 -13 -8
-12 4 -22 2 -22 -4 0 -5 -6 -8 -12 -5 -7 2 -25 -2 -40 -9 -21 -11 -28 -11 -31
-1 -4 9 -6 9 -6 -1 -1 -7 -5 -10 -11 -7 -5 3 -10 -2 -10 -12 0 -15 -2 -15 -9
-4 -8 12 -13 12 -35 -2 -24 -16 -25 -16 -20 0 4 13 0 12 -15 -6 -12 -13 -21
-18 -21 -12 0 7 -5 9 -12 4 -7 -4 -21 -6 -30 -5 -10 2 -18 -1 -18 -5 0 -5 -10
-9 -22 -10 -11 -1 -25 -8 -29 -15 -7 -10 -9 -10 -9 2 0 9 -3 11 -8 5 -4 -5
-14 -12 -22 -14 -18 -4 -60 -12 -77 -13 -7 -1 -13 -5 -13 -10 0 -5 -4 -7 -9
-4 -5 4 -12 0 -14 -6 -4 -10 -6 -10 -6 0 -1 6 -6 12 -12 12 -5 0 -7 -5 -3 -12
5 -7 2 -9 -8 -5 -9 3 -20 1 -25 -4 -5 -5 -28 -10 -50 -12 -23 -1 -39 -5 -36
-9 2 -5 -4 -8 -14 -8 -11 0 -24 -5 -30 -11 -8 -8 -17 -8 -32 0 -16 9 -19 9
-15 -2 3 -9 -4 -13 -23 -14 -48 -1 -54 -3 -48 -12 3 -6 -3 -8 -15 -6 -11 2
-22 -1 -26 -6 -3 -6 -12 -5 -22 3 -12 10 -14 10 -8 1 4 -8 2 -13 -4 -13 -6 0
-8 -4 -5 -10 3 -6 -1 -7 -9 -4 -9 3 -13 11 -9 18 3 6 -2 4 -13 -5 -10 -9 -27
-15 -37 -14 -9 2 -14 -1 -11 -7 3 -5 0 -9 -7 -7 -33 4 -50 -1 -43 -13 5 -9 2
-9 -9 1 -10 7 -17 9 -17 3 0 -6 -8 -9 -17 -7 -10 1 -28 -4 -41 -11 -12 -8 -28
-14 -35 -13 -27 3 -38 -1 -31 -13 5 -9 2 -9 -9 1 -12 9 -17 10 -17 2 0 -7 -6
-11 -12 -10 -27 3 -49 -1 -44 -9 2 -4 -4 -9 -15 -9 -11 -1 -17 3 -13 9 4 5 -5
2 -19 -7 -15 -9 -32 -13 -38 -9 -9 5 -10 2 -5 -11 5 -13 3 -15 -6 -8 -7 5 -19
8 -25 7 -7 -1 -18 -2 -24 -3 -5 0 -8 -5 -5 -10 3 -4 -6 -7 -19 -5 -14 1 -28
-2 -31 -7 -4 -6 -11 -6 -19 1 -10 9 -16 7 -24 -7 -6 -12 -19 -18 -38 -17 -15
1 -37 -3 -48 -9 -19 -10 -31 -13 -80 -19 -11 -2 -25 -9 -31 -17 -8 -11 -13
-11 -18 -2 -6 9 -12 7 -23 -6 -8 -10 -12 -12 -8 -5 7 14 -11 17 -20 2 -4 -6
-11 -8 -16 -5 -5 4 -9 2 -9 -3 0 -6 -6 -10 -12 -9 -36 1 -59 -4 -54 -12 4 -5
-2 -8 -11 -7 -10 2 -31 -1 -48 -6 -16 -5 -34 -10 -40 -11 -5 -2 -15 -6 -22
-10 -6 -4 -14 -1 -16 5 -4 10 -6 10 -6 0 -1 -7 -5 -10 -11 -7 -5 3 -10 1 -10
-5 0 -7 -7 -10 -15 -6 -8 3 -15 0 -15 -6 0 -7 -4 -7 -14 1 -11 9 -15 9 -18 0
-2 -7 -17 -13 -33 -15 -15 -2 -31 -7 -34 -11 -3 -4 -15 -8 -26 -7 -11 0 -31
-6 -44 -14 -13 -8 -20 -9 -17 -3 4 6 2 11 -3 11 -6 0 -11 -5 -11 -11 0 -5 -4
-7 -10 -4 -5 3 -10 0 -10 -7 0 -9 -3 -9 -10 2 -7 12 -10 12 -10 1 0 -7 -6 -11
-15 -7 -8 3 -15 2 -15 -3 0 -7 -15 -11 -53 -12 -10 0 -15 -5 -11 -11 5 -7 2
-8 -6 -3 -7 4 -16 2 -21 -6 -7 -12 -9 -12 -9 0 0 11 -3 11 -15 1 -8 -7 -22
-10 -30 -6 -11 4 -14 2 -9 -6 5 -8 2 -9 -9 -5 -9 3 -19 2 -22 -3 -3 -5 -12 -7
-19 -4 -7 3 -16 -2 -20 -11 -4 -13 -10 -14 -26 -5 -14 8 -20 8 -20 0 0 -6 -4
-8 -10 -5 -5 3 -10 2 -10 -2 0 -5 -8 -10 -17 -11 -10 -1 -32 -3 -50 -5 -17 -2
-39 -9 -47 -16 -9 -8 -16 -10 -16 -7 0 4 -7 1 -15 -8 -18 -18 -20 -30 -2 -20
9 6 9 5 -1 -8 -10 -12 -10 -18 2 -27 8 -7 12 -19 9 -27 -3 -8 0 -14 7 -14 7 0
10 -8 7 -20 -3 -11 -2 -22 3 -25 4 -2 7 -15 6 -27 -1 -13 3 -26 8 -30 5 -3 11
-21 13 -39 2 -18 9 -39 16 -48 10 -12 9 -13 -3 -6 -12 6 -13 5 -2 -6 6 -7 12
-23 12 -36 0 -13 4 -23 8 -23 4 0 9 -11 10 -25 5 -56 7 -65 14 -65 4 0 7 -3 7
-7 -3 -21 2 -44 9 -39 4 2 7 -8 6 -22 -1 -15 5 -38 13 -51 13 -20 13 -25 2
-32 -10 -6 -11 -9 -1 -9 6 0 12 -9 12 -20 0 -11 5 -20 11 -20 8 0 8 -5 -1 -15
-10 -12 -10 -15 0 -15 7 0 10 -8 8 -18 -3 -10 1 -23 8 -30 7 -7 11 -19 8 -26
-3 -8 0 -25 7 -38 11 -21 18 -49 21 -85 1 -7 5 -13 9 -13 4 0 5 -10 1 -22 -3
-14 -1 -19 6 -14 7 4 10 -1 7 -14 -2 -11 0 -20 5 -20 5 0 7 -9 5 -20 -2 -11 0
-20 6 -20 5 0 9 -5 9 -11 0 -5 -4 -7 -10 -4 -6 3 -7 -1 -4 -9 3 -9 9 -16 13
-16 4 0 8 -6 9 -12 1 -26 13 -73 21 -83 4 -5 6 -20 5 -32 0 -13 2 -23 6 -23 4
0 7 -6 8 -12 3 -35 9 -65 16 -76 14 -22 25 -73 15 -67 -5 4 -9 2 -9 -4 0 -5 5
-11 11 -13 5 -2 12 -12 14 -23 2 -11 4 -20 5 -20 1 0 3 -9 5 -20 4 -23 10 -46
24 -94 6 -19 8 -38 5 -42 -3 -5 0 -9 6 -9 7 0 10 -7 7 -15 -4 -8 -2 -17 4 -21
6 -3 8 -12 5 -20 -3 -8 -2 -14 3 -14 8 0 11 -16 12 -57 1 -13 6 -20 12 -16 6
3 7 1 3 -6 -4 -6 -3 -17 2 -24 5 -7 8 -20 7 -30 -2 -9 1 -15 5 -12 5 3 9 -4 9
-15 1 -11 1 -29 2 -40 0 -11 5 -20 10 -20 6 0 8 -9 4 -19 -3 -11 -1 -22 5 -26
6 -3 8 -11 5 -16 -4 -5 -2 -9 4 -9 6 0 8 -7 5 -15 -4 -8 -1 -22 6 -30 6 -8 9
-19 6 -24 -4 -5 -2 -12 4 -16 6 -4 7 -11 4 -17 -4 -6 -2 -8 4 -4 5 3 13 0 15
-6 3 -8 6 -6 6 5 1 15 5 16 21 7 14 -8 20 -8 20 0 0 6 5 8 10 5 6 -3 10 -1 10
5 0 7 7 10 15 7 8 -4 17 -2 20 3 3 5 13 6 22 3 12 -5 14 -3 8 7 -5 9 -4 11 3
6 6 -4 21 -2 33 5 12 6 19 7 15 1 -4 -7 5 -6 23 1 17 6 28 14 26 17 -5 8 39 5
53 -4 7 -4 10 -2 7 6 -3 8 2 14 12 15 10 1 37 8 61 16 28 10 44 11 49 4 4 -6
10 -5 17 4 6 8 22 16 36 18 14 2 31 4 38 5 8 1 18 9 23 17 7 11 9 11 9 0 0
-10 3 -11 13 -2 8 6 17 8 21 4 3 -4 12 2 20 12 8 11 15 14 20 7 8 -13 66 7 66
23 0 5 4 4 8 -3 5 -7 16 -10 25 -6 9 3 15 10 12 15 -3 4 4 6 16 4 13 -3 28 0
36 6 10 9 13 8 13 -2 0 -11 2 -11 8 -2 4 7 19 14 32 15 14 2 28 8 32 13 5 6
12 4 18 -5 8 -13 10 -12 10 3 0 10 5 15 10 12 6 -3 10 -1 10 6 0 8 4 8 15 -1
12 -10 15 -10 15 0 0 8 3 11 6 7 4 -3 19 0 35 8 18 10 30 11 34 5 4 -6 15 -1
26 12 12 13 18 17 14 11 -8 -17 6 -16 32 2 14 10 24 12 28 5 4 -6 11 -5 20 4
8 8 26 13 40 12 14 -2 25 1 25 6 0 6 7 8 15 4 8 -3 15 -1 15 5 0 6 6 9 13 6 6
-2 24 2 40 10 21 11 27 11 27 1 0 -10 3 -9 9 1 5 8 16 11 26 8 9 -4 13 -3 10
2 -3 5 -1 12 5 16 5 3 10 1 10 -6 0 -8 4 -9 13 0 10 8 19 6 35 -10 24 -22 29
-34 10 -23 -7 4 -4 -3 7 -16 12 -14 14 -20 5 -15 -13 8 -13 7 -1 -8 8 -10 11
-20 8 -23 -3 -3 1 -17 9 -32 8 -16 10 -30 4 -36 -6 -6 -1 -20 11 -38 14 -20
16 -28 7 -28 -10 0 -10 -2 -1 -8 6 -4 14 -19 17 -32 2 -14 10 -40 16 -58 7
-18 9 -39 6 -48 -3 -8 -2 -12 4 -9 6 3 10 -5 10 -19 0 -14 4 -27 10 -31 5 -3
7 -12 3 -20 -3 -8 0 -15 6 -15 6 0 11 -5 11 -11 0 -5 -5 -7 -11 -4 -7 5 -7 2
0 -11 15 -30 24 -58 22 -71 -1 -7 2 -13 6 -13 4 0 9 -11 9 -25 1 -14 5 -33 9
-43 4 -9 9 -30 11 -46 3 -17 8 -32 12 -35 8 -6 13 -37 15 -88 1 -17 5 -31 10
-30 5 1 11 -5 12 -13 2 -8 6 -31 10 -50 3 -19 9 -37 13 -40 4 -3 7 -16 7 -30
0 -14 6 -35 13 -47 9 -15 10 -23 2 -28 -8 -5 -7 -12 4 -24 9 -10 13 -21 9 -24
-3 -4 -1 -7 6 -7 7 0 11 -7 8 -15 -4 -8 -2 -17 3 -20 6 -4 10 -11 10 -16 0 -6
-5 -7 -11 -3 -6 3 -3 -5 6 -19 9 -15 14 -31 10 -37 -3 -5 -1 -10 6 -10 7 0 9
-3 6 -7 -4 -3 -1 -13 6 -21 10 -13 9 -14 -3 -7 -12 7 -13 6 -4 -6 5 -8 16 -27
22 -42 10 -23 10 -27 0 -21 -7 5 -5 -5 6 -20 11 -17 13 -25 5 -20 -12 6 -12 5
0 -9 7 -9 11 -23 8 -32 -4 -8 -1 -17 5 -21 7 -5 8 -2 3 6 -5 8 -4 11 3 6 6 -4
9 -13 6 -21 -3 -8 -2 -20 2 -27 4 -6 9 -26 11 -42 2 -17 8 -33 14 -37 8 -4 7
-9 -1 -14 -10 -6 -10 -10 1 -19 8 -6 15 -20 16 -31 3 -20 10 -56 13 -65 2 -3
2 -8 1 -12 0 -5 4 -8 9 -8 7 0 7 -7 -1 -21 -8 -15 -8 -19 0 -15 6 4 12 1 13
-6 0 -7 2 -17 2 -23 1 -5 4 -14 7 -20 4 -5 5 -18 4 -27 -2 -11 3 -18 13 -19
11 0 13 -2 4 -6 -10 -4 -10 -8 -1 -19 9 -11 8 -14 -2 -14 -8 0 -6 -6 7 -16 10
-8 12 -12 4 -8 -13 7 -13 5 -1 -9 7 -9 10 -17 6 -17 -4 0 -2 -6 4 -14 6 -7 8
-22 4 -31 -5 -13 -3 -16 6 -10 10 5 11 2 6 -14 -3 -12 -2 -21 4 -21 5 0 8 -9
6 -20 -2 -11 1 -23 7 -26 7 -5 8 -2 3 6 -6 9 -4 11 4 5 8 -5 9 -11 3 -17 -11
-11 -4 -48 10 -48 5 0 8 -8 6 -17 -1 -10 1 -24 6 -32 7 -10 5 -12 -3 -6 -15 9
8 -35 24 -47 6 -5 5 -8 -3 -8 -9 0 -10 -5 -2 -19 5 -11 11 -31 12 -45 1 -15 6
-26 10 -26 4 0 8 -13 8 -30 0 -17 5 -30 13 -30 8 0 7 -4 -3 -10 -10 -6 -11
-10 -2 -10 6 0 12 -10 12 -23 0 -13 6 -29 13 -36 10 -11 9 -12 -3 -6 -13 8
-13 6 -2 -8 8 -9 10 -22 6 -28 -4 -8 -3 -9 4 -5 8 5 11 -2 8 -23 -2 -17 1 -28
5 -25 5 3 10 -4 10 -15 1 -20 4 -32 9 -48 1 -5 2 -17 1 -28 -1 -15 0 -17 7 -7
13 19 22 -20 10 -42 -7 -12 -5 -18 7 -22 13 -6 14 -8 3 -15 -10 -7 -10 -9 0
-9 8 0 11 -9 8 -25 -3 -14 -1 -23 4 -20 5 3 11 1 15 -5 3 -5 1 -10 -6 -10 -8
0 -8 -4 -1 -13 6 -7 14 -28 17 -46 3 -19 10 -42 16 -52 7 -14 6 -19 -3 -19 -6
0 -4 -6 7 -13 10 -8 15 -19 11 -25 -4 -7 -3 -12 2 -12 5 0 8 -13 7 -30 -1 -17
2 -27 8 -23 6 4 8 0 4 -10 -3 -10 -2 -17 3 -17 5 0 7 -9 5 -20 -2 -11 1 -20 6
-20 6 0 8 -4 5 -8 -3 -5 1 -19 8 -33 7 -13 11 -30 8 -37 -2 -7 2 -20 10 -29
11 -14 11 -16 -2 -8 -12 6 -13 5 -2 -6 6 -7 12 -21 12 -31 0 -10 5 -18 11 -18
8 0 8 -5 -1 -15 -9 -10 -9 -15 -1 -15 6 0 11 -10 11 -23 0 -13 6 -29 13 -36
10 -11 9 -12 -3 -6 -12 7 -13 6 -4 -6 18 -25 35 -71 23 -64 -6 4 -3 -7 6 -24
9 -17 13 -36 10 -41 -3 -5 -1 -11 5 -15 5 -3 10 -19 10 -35 0 -16 4 -31 10
-35 5 -3 7 -12 3 -20 -3 -8 -1 -15 5 -15 6 0 8 -9 5 -20 -3 -12 0 -20 7 -20 7
0 10 -8 7 -20 -3 -11 -1 -20 5 -20 6 0 8 -7 5 -15 -4 -8 -2 -17 4 -20 5 -4 7
-11 4 -16 -4 -5 -2 -9 3 -9 5 0 8 -13 7 -30 -1 -16 1 -30 6 -30 5 0 9 -12 9
-26 0 -16 4 -23 11 -18 8 4 8 0 0 -15 -8 -14 -8 -21 -1 -21 5 0 10 -8 10 -18
0 -10 6 -24 13 -31 10 -11 9 -12 -3 -6 -13 8 -13 6 -2 -8 8 -9 11 -21 7 -27
-3 -5 -2 -10 3 -10 5 0 12 -9 15 -20 3 -11 1 -18 -4 -15 -4 3 -2 -10 6 -28 8
-19 11 -37 8 -41 -4 -3 -1 -6 6 -6 8 0 11 -8 8 -20 -3 -11 -1 -23 4 -26 5 -3
9 -11 8 -17 -2 -13 7 -41 22 -69 6 -13 5 -18 -3 -18 -9 0 -8 -3 2 -10 8 -5 11
-10 5 -10 -5 0 -2 -5 8 -11 13 -7 15 -14 8 -23 -6 -7 -6 -17 -1 -26 6 -8 10
-25 10 -37 0 -13 5 -23 11 -23 6 0 9 -7 6 -15 -4 -8 -2 -17 3 -20 6 -4 10 -12
10 -18 0 -7 -4 -6 -11 3 -9 13 -10 13 -5 0 3 -8 9 -23 12 -32 4 -10 11 -18 18
-18 6 0 4 -5 -4 -10 -8 -5 -10 -10 -4 -10 6 0 11 -6 12 -12 0 -7 3 -24 7 -38
3 -14 8 -32 10 -40 2 -8 4 -15 5 -15 1 0 4 -13 6 -30 3 -16 11 -36 17 -44 10
-12 9 -13 -3 -6 -13 8 -13 7 -1 -8 8 -10 11 -20 8 -24 -4 -3 0 -15 8 -27 18
-25 19 -39 3 -31 -7 4 -4 -1 6 -9 13 -11 15 -16 6 -16 -9 0 -8 -6 6 -22 10
-12 13 -18 7 -14 -9 5 -11 2 -7 -8 3 -9 9 -14 13 -11 4 2 7 -9 6 -25 -1 -17 1
-30 4 -30 4 0 7 -8 8 -17 0 -10 4 -28 7 -41 3 -12 8 -32 11 -44 2 -12 10 -25
16 -29 8 -5 8 -8 -1 -14 -8 -5 -6 -11 7 -22 10 -8 12 -12 6 -8 -16 8 -16 0 -1
-28 11 -20 15 -36 20 -74 1 -7 5 -13 10 -13 5 0 7 -4 4 -9 -4 -5 -1 -22 6 -38
6 -15 11 -38 11 -51 0 -12 4 -22 10 -22 6 0 7 -3 4 -6 -3 -4 -2 -15 4 -25 7
-14 6 -19 -3 -19 -6 0 -3 -7 8 -15 12 -9 14 -14 6 -15 -7 0 -10 -5 -7 -10 4
-6 11 -7 17 -4 7 5 7 1 0 -12 -8 -14 -6 -25 10 -46 12 -17 15 -28 7 -28 -8 0
-9 -3 0 -13 6 -8 8 -17 4 -20 -3 -4 -1 -7 5 -7 6 0 9 -7 6 -15 -4 -9 0 -15 7
-15 11 0 11 -3 -1 -10 -10 -6 -11 -10 -2 -10 6 0 11 -3 11 -7 -1 -5 0 -10 1
-13 1 -3 3 -12 5 -20 2 -8 6 -28 10 -45 3 -16 7 -36 7 -42 1 -7 4 -13 8 -13 7
0 8 -5 13 -53 2 -16 10 -33 18 -38 9 -6 10 -9 2 -9 -7 0 -10 -7 -7 -15 4 -8
10 -13 14 -10 5 3 5 -8 0 -24 -6 -21 -5 -28 3 -25 7 2 13 -6 13 -18 2 -30 8
-50 18 -67 7 -10 5 -12 -5 -6 -8 5 -6 0 4 -12 10 -11 17 -24 16 -29 -4 -23 2
-55 9 -50 4 3 7 -8 6 -24 -1 -16 3 -34 10 -39 7 -6 12 -23 11 -38 0 -15 6 -34
15 -41 13 -12 13 -13 -3 -8 -15 5 -16 3 -3 -17 8 -12 16 -26 18 -32 2 -5 7 -9
11 -7 5 1 5 -3 1 -10 -12 -18 -14 -39 -4 -33 5 3 9 -3 9 -12 1 -39 5 -53 13
-53 5 0 7 -8 3 -19 -3 -10 1 -24 10 -31 8 -7 12 -16 9 -22 -3 -5 0 -16 8 -25
11 -14 11 -16 -1 -9 -9 6 -12 5 -9 -5 3 -8 11 -13 17 -11 9 2 9 -3 1 -18 -8
-15 -8 -20 2 -20 9 0 9 -3 -2 -10 -13 -8 -13 -10 2 -10 10 0 15 -7 13 -17 -1
-10 1 -22 5 -28 9 -11 10 -15 10 -46 0 -11 4 -17 10 -14 7 4 7 -3 0 -20 -7
-17 -7 -24 0 -20 10 6 13 -3 13 -38 0 -9 4 -17 8 -17 5 0 9 -5 9 -11 0 -5 -6
-7 -12 -4 -7 4 -2 -2 11 -13 16 -12 20 -22 12 -26 -7 -5 -6 -15 7 -34 11 -17
12 -23 4 -18 -11 7 -12 4 -3 -11 6 -11 7 -23 4 -27 -3 -3 -1 -6 5 -6 7 0 11
-3 11 -7 -4 -26 2 -43 14 -37 8 5 8 2 -2 -9 -9 -12 -10 -17 -2 -17 7 0 10 -4
7 -9 -4 -5 0 -12 6 -14 10 -4 9 -6 -1 -6 -11 -1 -11 -4 -1 -16 7 -8 14 -32 17
-52 3 -21 9 -41 14 -44 6 -3 7 -13 3 -22 -3 -9 -2 -17 4 -17 6 0 8 -9 5 -20
-3 -11 -1 -20 5 -20 6 0 9 -11 8 -25 -2 -15 1 -22 7 -18 6 4 8 0 4 -10 -3 -10
-2 -17 4 -17 6 0 6 -7 -1 -20 -8 -16 -8 -20 2 -18 7 2 12 -4 10 -14 -1 -9 2
-19 8 -23 8 -5 7 -12 -2 -23 -11 -13 -11 -14 1 -7 11 6 13 3 9 -13 -4 -12 -3
-20 1 -18 4 3 11 -11 17 -29 6 -19 7 -32 3 -30 -4 3 -5 -4 -2 -15 3 -11 9 -20
13 -20 4 0 8 -11 8 -24 0 -13 7 -38 15 -55 10 -19 11 -29 4 -24 -7 4 -4 -6 7
-21 11 -17 13 -25 5 -20 -9 5 -8 -1 3 -19 10 -14 18 -30 18 -34 0 -4 -5 -1
-10 7 -5 8 -10 11 -10 5 1 -5 7 -18 15 -28 7 -11 11 -25 8 -33 -3 -8 0 -14 6
-14 6 0 8 -7 5 -15 -4 -8 -1 -15 6 -15 9 0 9 -4 -1 -17 -8 -9 -9 -14 -3 -10 7
4 15 0 18 -9 4 -10 2 -13 -7 -8 -8 6 -8 3 1 -9 8 -9 11 -21 7 -27 -3 -5 -2
-10 3 -10 5 0 9 -6 10 -12 2 -23 7 -43 16 -57 7 -10 5 -12 -3 -6 -8 4 -7 -2 3
-17 9 -13 14 -34 11 -46 -2 -12 -1 -22 3 -22 4 0 13 -9 20 -21 8 -12 9 -18 3
-14 -15 9 -14 -8 2 -24 10 -11 9 -12 -3 -6 -12 6 -13 5 -2 -6 6 -7 12 -21 12
-31 0 -10 6 -18 13 -18 8 0 7 -4 -3 -10 -10 -6 -11 -10 -2 -10 7 0 12 -13 12
-30 0 -16 4 -30 9 -30 5 0 8 -8 7 -17 -2 -10 2 -21 8 -25 7 -5 6 -8 -4 -8 -11
0 -12 -2 -3 -8 7 -4 15 -23 18 -42 3 -19 11 -41 18 -49 10 -12 9 -13 -3 -6
-13 7 -13 6 -2 -7 7 -9 12 -20 10 -24 -1 -5 3 -19 10 -31 10 -18 10 -23 1 -23
-7 0 -5 -8 6 -20 13 -14 14 -20 5 -20 -9 0 -7 -5 6 -16 10 -8 13 -12 5 -8 -10
5 -12 3 -5 -7 4 -8 9 -18 11 -24 1 -5 9 -31 17 -57 8 -25 12 -49 9 -52 -4 -3
0 -6 8 -6 11 0 11 -2 -1 -10 -12 -8 -12 -10 -1 -10 8 0 11 -3 8 -7 -4 -3 -2
-12 5 -20 6 -7 8 -16 5 -19 -3 -3 1 -20 8 -39 8 -18 11 -35 8 -39 -4 -3 -2 -6
3 -6 5 0 10 -12 11 -26 0 -15 6 -30 13 -34 9 -6 9 -9 0 -15 -8 -5 -7 -12 6
-26 12 -13 13 -19 4 -19 -9 0 -10 -3 -1 -13 6 -8 8 -17 4 -20 -3 -4 -1 -7 6
-7 7 0 11 -6 8 -12 -2 -7 3 -19 12 -26 9 -8 11 -11 4 -8 -7 4 -11 -1 -10 -14
1 -11 4 -20 8 -20 4 0 10 -7 13 -16 4 -10 2 -13 -7 -8 -8 6 -8 3 1 -9 8 -9 11
-21 7 -27 -3 -5 -1 -10 5 -10 6 0 9 -4 5 -9 -3 -5 -1 -12 4 -15 5 -3 7 -16 3
-28 -4 -16 -2 -19 8 -13 8 5 11 4 6 -3 -4 -6 0 -27 8 -47 8 -19 12 -35 9 -35
-3 0 0 -6 6 -13 6 -8 8 -16 6 -19 -3 -3 -1 -17 5 -32 5 -15 6 -25 1 -22 -5 4
-11 2 -13 -4 -1 -5 -15 -11 -30 -12 -16 -1 -28 -5 -28 -9 0 -4 -9 -5 -20 -2
-12 3 -20 0 -20 -6 0 -7 -4 -10 -9 -6 -5 3 -13 0 -17 -6 -4 -7 -9 -8 -13 -1
-4 6 -20 4 -44 -8 -20 -10 -34 -13 -30 -7 5 9 3 9 -8 1 -8 -6 -22 -10 -31 -9
-9 2 -15 -2 -12 -9 3 -7 -4 -12 -16 -12 -11 0 -20 5 -20 11 0 5 -5 3 -10 -5
-5 -8 -10 -11 -10 -6 0 4 -11 1 -25 -8 -14 -9 -30 -14 -36 -10 -6 4 -15 0 -20
-7 -7 -12 -9 -11 -9 1 0 13 -2 13 -9 1 -5 -8 -24 -15 -41 -16 -17 -1 -35 -7
-40 -14 -6 -10 -9 -10 -15 -1 -4 7 -10 8 -14 4 -3 -5 -21 -14 -38 -21 -25 -8
-33 -8 -33 0 0 8 -4 7 -9 -2 -5 -8 -16 -11 -26 -8 -9 4 -14 3 -11 -2 3 -5 -1
-12 -10 -15 -10 -4 -13 -2 -8 7 6 8 3 8 -9 -1 -9 -8 -21 -11 -27 -7 -5 3 -10
1 -10 -6 0 -6 -8 -9 -20 -6 -11 3 -20 1 -20 -5 0 -6 -7 -8 -15 -4 -8 3 -15 1
-15 -3 0 -5 -13 -8 -29 -7 -17 1 -28 -1 -25 -5 5 -9 -25 -21 -36 -14 -5 3 -11
1 -15 -4 -3 -6 -12 -8 -20 -4 -8 3 -15 0 -15 -6 0 -6 -5 -11 -11 -11 -5 0 -8
4 -4 9 3 5 -7 3 -23 -4 -15 -8 -37 -16 -48 -18 -10 -1 -25 -6 -31 -10 -8 -5
-13 -3 -13 5 0 8 -5 6 -11 -4 -5 -10 -15 -18 -20 -18 -6 0 -7 6 -3 12 4 7 -2
4 -14 -6 -14 -12 -22 -14 -22 -7 0 7 -5 9 -10 6 -6 -4 -8 -10 -6 -14 3 -4 -12
-7 -34 -7 -21 1 -36 -3 -33 -8 3 -5 -6 -7 -20 -4 -15 3 -25 2 -23 -1 3 -4 -7
-11 -20 -18 -13 -6 -22 -7 -18 -2 3 5 0 9 -5 9 -6 0 -11 -4 -11 -10 0 -5 -6
-7 -14 -4 -8 3 -17 1 -20 -5 -4 -6 -14 -7 -23 -4 -10 4 -14 2 -10 -4 3 -5 -3
-9 -16 -8 -27 2 -39 -24 -20 -43 17 -17 17 -36 1 -26 -10 6 -10 5 -1 -8 7 -8
10 -18 6 -21 -3 -4 -1 -7 6 -7 7 0 11 -7 8 -15 -4 -8 -2 -17 4 -20 5 -4 7 -11
3 -16 -3 -5 0 -16 6 -24 6 -8 9 -19 5 -25 -3 -5 -1 -10 5 -10 7 0 10 -7 6 -15
-3 -8 -1 -15 4 -15 5 0 7 -7 4 -15 -4 -9 0 -15 7 -15 11 0 11 -3 -1 -10 -12
-8 -12 -10 -1 -10 8 0 11 -3 8 -6 -3 -4 -2 -15 4 -25 7 -13 6 -19 -1 -19 -6 0
-4 -7 4 -16 9 -8 16 -18 17 -22 1 -4 2 -19 3 -33 2 -14 7 -32 11 -40 5 -7 10
-20 11 -29 3 -20 12 -55 14 -55 2 0 9 -36 12 -65 2 -14 8 -31 15 -37 6 -7 10
-24 9 -38 -2 -14 1 -25 6 -25 6 0 8 -7 4 -15 -3 -8 -1 -15 4 -15 5 0 7 -7 4
-15 -4 -8 -1 -15 6 -15 9 0 9 -4 -1 -17 -12 -14 -12 -16 0 -8 11 6 13 3 9 -13
-4 -12 -3 -20 2 -17 12 7 19 -32 8 -43 -6 -6 -5 -12 3 -17 8 -6 10 -4 4 5 -5
8 -4 11 3 6 6 -3 9 -15 7 -26 -2 -11 -1 -20 3 -20 4 0 9 -12 10 -27 1 -15 8
-30 15 -35 9 -6 9 -8 -1 -8 -8 0 -10 -5 -5 -12 4 -7 9 -22 10 -32 2 -11 8 -25
14 -33 9 -10 8 -13 -2 -13 -11 0 -11 -2 -2 -8 7 -4 15 -19 17 -32 2 -14 5 -26
7 -27 1 -2 3 -7 4 -13 1 -5 4 -13 5 -17 1 -5 2 -16 1 -25 -1 -10 3 -18 10 -18
7 0 10 -3 6 -6 -3 -3 1 -26 8 -52 8 -25 12 -49 9 -54 -3 -4 0 -8 7 -8 7 0 9
-3 6 -7 -4 -3 -1 -13 6 -21 10 -13 9 -14 -3 -7 -9 5 -7 -1 5 -15 11 -13 14
-20 7 -16 -11 7 -12 4 -3 -11 5 -11 13 -35 16 -54 3 -18 10 -38 15 -44 9 -11
10 -15 10 -46 0 -12 4 -17 11 -13 8 4 8 0 0 -15 -9 -16 -9 -21 0 -21 7 0 9 -3
6 -7 -4 -3 0 -17 9 -31 11 -17 12 -22 3 -16 -11 6 -12 5 -2 -7 6 -8 14 -26 16
-39 11 -63 20 -89 29 -84 6 4 5 -3 -1 -15 -8 -15 -9 -21 -1 -21 6 0 9 -4 6 -9
-3 -5 1 -14 9 -21 11 -9 12 -17 4 -31 -6 -13 -6 -19 1 -19 5 0 10 -9 10 -20 0
-11 5 -20 11 -20 8 0 8 -5 -1 -15 -9 -11 -9 -15 -1 -15 7 0 9 -4 6 -10 -3 -5
-1 -10 5 -10 6 0 9 -4 6 -9 -11 -17 5 -38 29 -38 16 0 22 4 18 11 -4 6 2 4 12
-4 10 -8 16 -10 12 -4 -4 7 0 15 9 18 10 4 13 2 8 -7 -6 -8 -3 -8 9 1 9 8 21
11 26 8 5 -4 14 2 20 11 7 13 10 14 11 4 0 -11 5 -9 22 5 12 10 18 13 14 7 -4
-7 -2 -13 3 -13 6 0 11 5 11 11 0 7 10 9 25 7 14 -3 25 -1 25 4 0 6 7 7 16 4
8 -3 13 -2 10 3 -3 5 1 12 10 15 10 4 13 2 8 -7 -6 -9 -4 -9 7 -1 8 6 22 10
32 9 9 -2 17 1 17 7 0 6 7 8 15 5 8 -4 17 -2 21 4 3 6 12 8 20 5 8 -3 14 -1
14 5 0 6 5 7 10 4 6 -3 10 0 10 7 0 10 2 10 9 -1 6 -9 11 -10 15 -2 4 6 18 11
32 11 13 0 24 5 24 11 0 8 4 8 13 0 10 -8 19 -6 35 10 13 11 22 15 22 8 0 -8
6 -7 18 3 9 9 23 13 31 10 7 -2 17 2 22 9 7 11 9 11 9 1 0 -10 9 -8 33 6 23
15 38 18 55 11 16 -6 24 -5 28 5 5 13 11 14 60 17 19 1 24 6 19 18 -5 12 -3
13 6 4 7 -7 19 -9 34 -3 13 5 26 6 29 3 3 -4 6 -1 6 6 0 7 5 9 10 6 6 -4 16
-2 23 3 7 5 20 8 30 7 9 -2 17 2 17 8 0 5 3 7 7 4 3 -4 13 -1 21 6 13 10 14 9
7 -3 -7 -12 -6 -13 6 -4 17 14 69 28 88 25 7 -1 10 2 6 8 -3 7 0 8 10 5 8 -4
23 0 32 7 14 12 16 12 8 -1 -8 -13 -6 -13 8 -2 9 8 22 10 28 6 8 -5 9 -3 4 6
-6 10 -4 12 8 7 9 -3 19 -2 22 3 3 5 12 7 20 3 8 -3 15 -1 15 5 0 6 11 9 25 7
14 -1 25 1 25 4 0 12 70 29 77 18 4 -6 10 -5 17 4 6 8 20 14 31 14 11 0 25 3
32 8 7 5 27 11 45 14 18 3 39 10 47 16 12 10 13 9 6 -3 -5 -9 1 -7 15 5 14 12
20 14 15 5 -7 -12 -6 -13 7 -3 8 7 18 10 21 6 4 -3 7 -1 7 5 0 6 14 10 31 10
17 -1 35 5 40 13 7 11 9 11 9 1 0 -10 4 -10 16 2 18 18 28 21 18 5 -4 -8 0 -8
15 0 12 7 27 9 33 5 7 -5 8 -3 3 6 -6 10 -1 12 19 8 14 -3 26 -1 26 3 0 5 8 9
18 9 10 0 24 6 31 12 11 11 12 10 6 -2 -7 -12 -6 -13 7 -3 8 7 18 10 21 6 4
-3 7 -1 7 6 0 7 5 9 10 6 6 -4 18 -1 27 7 12 9 15 9 9 1 -5 -9 -2 -11 8 -7 9
3 16 10 16 15 0 5 5 9 11 9 5 0 7 -5 3 -11 -3 -6 5 -4 19 5 20 13 26 14 30 4
4 -10 6 -10 6 0 1 6 10 12 20 12 11 0 22 4 26 10 3 5 12 7 20 3 8 -3 15 -1 15
5 0 5 9 12 20 15 12 3 18 1 14 -5 -4 -6 1 -6 13 1 11 6 23 7 27 4 3 -3 6 -2 6
3 0 10 8 12 67 16 17 2 29 7 26 12 -4 5 3 7 14 4 11 -3 31 3 44 13 17 13 27
15 36 7 9 -7 13 -7 13 2 0 7 7 10 15 6 8 -3 15 -2 15 3 0 5 8 8 18 8 33 0 43
3 38 11 -3 5 15 8 39 7 24 0 41 3 39 7 -3 4 0 8 5 8 21 0 26 2 39 12 6 6 12 7
12 3 0 -4 8 -1 17 6 14 12 16 12 9 0 -6 -9 -5 -12 5 -9 8 3 13 11 11 17 -2 9
3 9 18 1 19 -10 25 -6 21 14 -1 5 5 4 13 -4 12 -9 16 -9 16 -1 0 7 4 10 9 6 5
-3 13 -1 16 5 5 8 11 7 21 -1 10 -8 14 -8 14 0 0 6 7 11 16 11 9 0 12 5 8 11
-5 8 -2 9 11 2 12 -7 27 -6 49 6 17 8 39 14 49 13 9 -2 17 1 17 5 0 8 8 10 65
15 14 1 25 6 25 11 0 5 7 7 15 3 8 -3 15 -1 15 4 0 5 9 7 19 5 11 -2 27 2 37
10 14 9 24 10 38 3 15 -8 18 -7 13 5 -4 11 -1 15 13 12 11 -2 22 1 26 6 4 6
10 6 19 -1 10 -8 15 -8 21 1 5 8 3 9 -6 4 -8 -5 -11 -4 -6 3 3 6 15 9 26 7 11
-2 22 1 26 6 3 6 12 5 22 -3 9 -7 13 -8 9 -2 -4 7 0 17 7 23 10 8 16 9 21 2 4
-7 15 -6 34 4 16 8 31 12 34 9 3 -3 12 -2 19 2 7 5 19 9 27 11 8 1 26 5 40 9
14 4 29 7 34 6 4 -1 7 2 7 7 0 5 6 9 13 8 35 -1 58 4 52 12 -3 5 0 13 6 17 7
4 9 3 5 -4 -12 -20 19 -18 61 4 25 13 45 18 49 13 4 -6 11 -6 19 1 8 7 19 9
25 5 5 -3 10 -1 10 5 0 6 5 8 10 5 6 -3 10 -2 10 4 0 5 8 8 18 6 9 -1 25 2 35
7 10 5 31 10 47 10 17 1 27 5 23 11 -4 6 0 8 10 4 9 -3 19 -2 22 3 3 4 16 7
30 6 14 -2 22 1 18 7 -4 6 2 8 15 5 12 -4 22 -3 22 0 0 4 16 12 35 18 24 8 32
8 28 0 -4 -6 1 -5 10 3 9 7 17 11 17 8 0 -3 16 1 35 9 19 8 35 12 35 10 0 -3
18 1 39 9 30 10 41 11 45 2 2 -7 5 -4 5 6 1 10 6 15 11 12 6 -3 10 -1 10 6 0
8 4 8 15 -1 12 -10 16 -9 21 4 5 14 9 14 22 4 12 -10 14 -10 8 -1 -8 14 2 17
43 13 14 -1 21 2 17 9 -4 6 -3 11 3 11 5 0 12 -6 14 -12 4 -10 6 -10 6 0 1 6
9 12 19 12 9 0 29 7 44 14 18 9 30 11 34 5 3 -6 12 -3 21 8 8 10 12 12 8 6 -3
-7 -1 -13 4 -13 6 0 11 5 11 11 0 6 6 9 14 6 7 -3 18 -1 23 4 6 6 24 11 42 11
17 1 31 5 31 10 0 5 6 8 13 7 23 -3 38 1 33 9 -2 4 4 8 15 8 10 0 19 -5 19
-11 0 -5 4 -5 8 2 4 7 23 15 42 18 19 3 36 10 38 14 2 5 12 7 22 4 13 -3 20 0
20 8 0 10 3 10 12 1 10 -10 16 -8 31 10 10 13 16 17 12 9 -6 -10 -2 -11 16 -5
13 4 30 7 37 7 6 0 12 5 12 10 0 6 3 7 7 4 3 -4 13 -1 21 6 13 10 14 9 7 -3
-8 -13 -6 -13 8 -2 9 8 21 11 27 7 5 -3 10 -1 10 6 0 7 3 9 7 6 9 -9 33 12 33
30 0 8 -4 12 -9 9 -12 -8 -21 18 -11 33 4 7 1 26 -7 42 -8 16 -12 33 -8 39 3
5 1 10 -4 10 -6 0 -11 12 -11 26 0 17 -4 23 -12 18 -9 -5 -9 -2 1 9 7 9 9 17
4 17 -5 0 -10 6 -11 13 -2 23 -8 46 -14 53 -4 3 -4 12 -1 20 3 8 1 14 -5 14
-6 0 -8 8 -5 19 3 10 0 22 -7 26 -8 5 -8 11 1 21 10 12 10 14 0 12 -8 -2 -15
4 -16 12 -2 8 -6 29 -10 45 -3 17 -7 37 -7 45 0 8 -8 24 -17 34 -13 16 -13 18
-1 11 13 -8 13 -6 2 8 -8 9 -11 21 -7 27 3 5 2 10 -4 10 -6 0 -8 7 -5 15 4 8
1 15 -4 15 -6 0 -9 9 -7 20 2 11 1 20 -3 20 -4 0 -9 8 -10 18 -7 64 -11 84
-22 97 -6 8 -9 19 -5 25 3 5 1 10 -4 10 -6 0 -10 3 -10 8 5 28 -2 52 -13 46
-10 -6 -10 -4 0 8 9 11 10 18 2 23 -6 3 -8 11 -5 16 4 5 2 9 -3 9 -5 0 -8 11
-7 25 2 14 0 25 -5 25 -4 0 -11 7 -14 16 -3 8 -2 12 4 9 5 -3 3 7 -5 22 -17
32 -19 47 -6 39 5 -3 0 11 -10 31 -10 20 -16 40 -13 44 3 5 1 9 -5 9 -6 0 -8
7 -5 15 4 8 2 15 -4 15 -5 0 -7 12 -4 26 4 21 2 25 -9 19 -11 -6 -11 -5 -2 5
9 10 8 16 -3 27 -8 8 -11 19 -8 24 3 6 -2 17 -12 25 -18 13 -18 14 1 7 18 -6
19 -5 6 11 -8 9 -16 29 -17 42 -2 14 -9 33 -16 42 -11 13 -11 14 1 8 8 -5 6 3
-5 20 -14 21 -15 26 -4 19 13 -8 13 -7 1 8 -7 9 -10 17 -6 17 4 0 2 7 -5 15
-6 8 -9 18 -6 24 4 5 -1 17 -11 26 -14 14 -14 18 -2 26 11 7 11 9 0 9 -7 0
-11 6 -7 15 3 8 1 15 -5 15 -6 0 -9 7 -5 15 3 8 2 15 -3 15 -5 0 -7 11 -6 25
2 14 -1 25 -7 25 -6 0 -7 7 -4 16 3 8 2 12 -4 9 -5 -3 -9 3 -9 12 1 10 -2 29
-5 43 -3 14 -8 36 -11 49 -2 12 -8 28 -13 35 -5 6 -8 21 -6 34 3 16 0 21 -8
16 -8 -5 -9 -2 -5 9 4 10 1 17 -6 17 -8 0 -6 4 3 10 10 6 11 10 3 10 -7 0 -13
10 -13 23 0 13 -6 29 -12 36 -11 11 -10 12 0 6 11 -6 11 -3 1 13 -10 16 -17
18 -26 10 -7 -5 -20 -8 -28 -4 -11 4 -14 2 -9 -6 5 -7 0 -9 -14 -6 -12 3 -22
2 -24 -2 -2 -5 -16 -10 -33 -12 -16 -2 -41 -10 -54 -17 -19 -11 -22 -11 -15 1
7 11 5 11 -9 0 -9 -8 -20 -11 -25 -8 -6 3 -15 -1 -22 -9 -7 -8 -18 -15 -24
-15 -6 0 -4 5 4 10 23 15 6 12 -28 -6 -18 -8 -36 -13 -42 -9 -5 3 -10 2 -10
-3 0 -5 -19 -12 -42 -16 -23 -4 -49 -12 -57 -19 -12 -10 -13 -9 -6 3 7 12 6
13 -7 3 -8 -7 -18 -10 -21 -6 -4 3 -7 2 -7 -3 0 -5 -14 -11 -32 -12 -18 -2
-35 -7 -39 -13 -3 -6 -9 -10 -13 -10 -3 1 -9 1 -13 0 -5 -1 -20 0 -35 1 -16 1
-28 -4 -28 -10 0 -7 -8 -10 -20 -7 -11 3 -20 1 -20 -4 0 -5 -9 -9 -20 -9 -11
0 -20 -5 -20 -12 0 -9 -3 -9 -11 -1 -9 9 -18 7 -37 -5 -21 -14 -25 -14 -17 -2
6 11 3 10 -11 -2 -11 -10 -30 -16 -42 -13 -12 2 -22 0 -22 -5 0 -5 -7 -7 -15
-4 -8 4 -15 1 -15 -4 0 -6 -9 -9 -20 -7 -11 2 -20 0 -20 -5 0 -5 -9 -7 -20 -5
-11 2 -20 0 -20 -5 0 -5 -9 -7 -20 -5 -11 2 -20 0 -20 -5 0 -4 -7 -11 -16 -14
-9 -4 -13 -2 -8 5 4 7 -1 7 -16 -1 -12 -6 -28 -9 -36 -6 -8 3 -13 2 -10 -3 9
-13 -41 -20 -54 -7 -8 8 -9 6 -4 -7 3 -10 3 -17 -2 -16 -26 4 -64 -2 -59 -10
3 -6 -4 -9 -15 -8 -11 1 -20 6 -20 12 0 5 -5 2 -11 -7 -6 -11 -16 -15 -26 -11
-10 4 -14 2 -10 -4 4 -6 -8 -9 -31 -8 -23 0 -43 -6 -54 -17 -16 -16 -19 -16
-24 -3 -3 8 -10 13 -14 10 -4 -3 -10 4 -13 15 -3 13 -1 18 6 13 7 -4 6 1 -2
10 -7 9 -10 17 -5 17 4 0 3 5 -4 12 -16 16 -15 31 1 22 8 -5 8 -3 -2 9 -7 9
-18 14 -25 10 -7 -4 -6 -1 1 9 7 8 10 18 6 22 -7 6 -11 24 -15 59 -1 9 -5 17
-9 17 -4 0 -5 10 -1 22 4 16 2 19 -8 13 -9 -5 -11 -4 -6 4 4 6 2 19 -6 28 -11
14 -11 16 2 8 13 -8 13 -7 1 8 -7 9 -10 17 -5 17 5 0 1 5 -9 11 -13 7 -15 14
-8 23 6 7 6 17 1 26 -6 8 -10 25 -10 38 0 13 -4 20 -10 17 -5 -3 -7 0 -4 8 3
8 1 18 -4 21 -5 3 -8 17 -7 31 2 14 -2 25 -8 25 -7 0 -5 5 3 10 8 5 10 10 4
10 -7 0 -15 7 -18 16 -4 10 -2 13 7 8 9 -6 9 -5 0 8 -7 8 -10 18 -6 21 3 4 1
7 -5 7 -6 0 -9 9 -7 20 2 12 0 18 -6 14 -6 -3 -10 2 -9 12 1 11 1 21 0 24 -1
3 -3 13 -6 22 -2 10 -6 26 -8 35 -3 10 -5 18 -6 18 -1 0 -4 11 -6 25 -3 14 -9
27 -15 28 -6 3 -6 9 2 18 9 11 9 14 -1 14 -7 0 -10 7 -6 15 3 8 1 15 -4 15 -5
0 -7 9 -5 20 2 11 -1 20 -7 20 -6 0 -8 3 -5 6 3 4 1 16 -5 28 -6 11 -13 32
-14 46 -3 27 -11 65 -14 65 -1 0 -4 14 -6 30 -3 17 -9 32 -15 33 -5 2 -6 8 -3
13 3 6 0 17 -8 26 -11 14 -11 16 0 9 11 -7 12 -4 3 12 -6 12 -10 25 -9 29 1 4
-3 18 -10 30 -7 12 -12 26 -11 30 1 4 0 10 -1 13 -4 13 -12 47 -13 63 -1 9 -5
17 -10 17 -4 0 -6 4 -2 9 3 5 1 12 -4 16 -5 3 -8 14 -6 25 2 11 -1 20 -7 20
-6 0 -8 3 -5 7 4 3 1 13 -6 21 -10 13 -9 14 3 7 12 -7 13 -6 3 7 -7 8 -10 18
-6 21 3 4 0 7 -7 7 -7 0 -10 3 -7 7 4 3 1 13 -6 21 -10 13 -9 14 1 8 12 -7 12
-4 2 14 -6 12 -9 28 -6 36 3 8 2 13 -3 10 -11 -7 -22 20 -15 38 3 7 -1 20 -8
27 -7 8 -14 23 -14 34 -1 11 -5 34 -8 50 -4 17 -8 36 -8 43 -1 6 -6 12 -11 12
-6 0 -8 3 -5 6 4 3 0 21 -8 41 -8 19 -11 32 -7 30 5 -3 9 3 9 13 0 10 -5 18
-10 17 -6 -1 -10 7 -11 18 0 11 -5 27 -10 35 -5 8 -8 23 -7 33 2 9 -3 17 -10
17 -9 0 -9 3 2 10 12 8 12 10 1 10 -8 0 -11 3 -8 6 3 4 2 15 -4 26 -9 17 -8
19 13 16 13 -2 29 -10 36 -18 12 -13 13 -13 6 0 -6 11 -2 10 13 -3 11 -9 23
-14 26 -10 4 3 7 1 7 -5 0 -7 5 -12 11 -12 5 0 7 6 4 13 -4 6 0 4 8 -6 8 -10
24 -19 36 -20 12 -1 21 -5 21 -10 0 -4 5 -5 10 -2 6 3 10 2 10 -3 0 -6 7 -13
16 -16 10 -4 13 -2 8 7 -4 6 5 1 21 -13 16 -14 25 -19 21 -13 -4 7 -2 13 3 13
6 0 11 -5 11 -11 0 -5 4 -8 9 -4 5 3 12 1 16 -5 3 -5 15 -10 26 -10 10 0 19
-5 19 -11 0 -5 4 -8 9 -4 5 3 13 0 16 -6 4 -5 13 -8 21 -5 7 3 16 1 19 -5 4
-5 11 -7 16 -4 5 4 9 2 9 -3 0 -6 16 -13 35 -16 19 -4 35 -11 35 -17 0 -6 8
-5 21 2 15 8 19 8 15 0 -4 -6 0 -11 8 -11 9 0 16 -6 16 -12 0 -9 4 -8 10 2 6
10 10 11 10 2 0 -6 3 -11 8 -10 4 1 18 -4 31 -11 16 -9 21 -9 16 -1 -4 6 12 2
35 -10 25 -13 39 -16 34 -8 -6 9 -3 9 10 -1 10 -8 25 -16 34 -17 10 -2 26 -5
37 -8 11 -2 26 -5 33 -5 8 -1 10 -6 6 -13 -5 -9 -2 -9 9 1 9 7 17 9 17 4 0 -5
6 -10 13 -11 36 -5 53 -9 62 -14 6 -3 18 -4 28 -3 10 2 17 -3 18 -13 0 -11 2
-12 6 -4 2 6 10 9 16 5 13 -8 42 -14 75 -15 12 0 22 -3 22 -7 0 -4 14 -8 32
-9 18 -2 35 -7 39 -13 5 -8 9 -8 14 0 5 9 10 9 20 1 8 -7 19 -9 25 -5 5 3 10
2 10 -3 0 -5 10 -8 23 -8 12 1 30 -2 40 -7 12 -5 23 -4 33 4 12 9 13 9 9 -2
-4 -11 3 -14 30 -14 20 1 38 -2 41 -7 8 -13 36 -9 29 5 -4 6 -1 5 7 -4 7 -9
19 -14 27 -11 7 2 17 -2 22 -9 7 -11 9 -11 9 -1 0 9 5 10 19 2 14 -7 21 -6 24
3 4 9 6 9 6 0 1 -9 8 -10 27 -3 19 7 23 7 18 -2 -5 -8 -2 -9 11 -4 16 6 16 4
4 -10 -13 -16 -12 -16 6 -7 29 16 37 16 46 1 7 -10 9 -10 9 0 0 10 5 10 20 2
15 -8 20 -8 20 2 0 10 3 9 9 -1 8 -13 12 -13 27 0 10 8 15 9 11 3 -4 -7 0 -14
7 -17 8 -3 17 -1 20 6 3 8 5 8 5 -2 1 -10 4 -11 15 -2 11 9 16 9 22 0 5 -8 3
-9 -6 -4 -9 5 -11 4 -6 -4 4 -6 13 -8 19 -4 16 11 29 11 49 1 10 -5 19 -4 23
2 5 8 11 8 19 1 9 -7 17 -7 26 2 10 9 11 9 5 -1 -5 -10 0 -12 24 -9 17 3 31 2
31 -2 0 -4 9 -7 20 -7 11 0 20 4 20 8 0 4 5 8 11 8 5 0 7 -4 4 -10 -4 -7 3 -7
19 0 15 5 26 6 26 0 0 -5 11 -7 25 -4 16 3 25 0 25 -8 0 -8 3 -9 8 -3 11 15
46 19 36 4 -5 -8 -3 -9 7 -3 21 13 39 14 39 1 0 -7 5 -5 10 3 5 8 10 11 10 6
0 -5 6 -3 14 3 11 9 16 9 22 0 5 -8 3 -9 -6 -4 -9 5 -11 4 -6 -4 4 -6 13 -8
19 -4 20 12 147 11 140 -1 -3 -6 0 -6 7 1 9 8 20 9 38 2 23 -9 24 -8 11 8 -12
14 -12 16 0 8 21 -12 61 -15 61 -3 0 6 7 7 18 3 25 -11 76 -6 101 9 10 6 12 5
7 -2 -9 -15 36 -12 46 3 5 6 8 6 8 -2 0 -8 9 -9 30 -3 21 6 30 5 30 -3 0 -9 2
-9 8 -1 4 6 15 10 24 8 10 -1 21 2 24 7 3 6 11 5 20 -2 11 -9 17 -9 28 0 10 9
16 9 21 1 5 -8 13 -6 26 6 10 9 19 13 19 7 0 -12 48 -5 56 8 3 5 14 5 25 -1
11 -6 19 -7 19 -1 0 5 8 7 19 4 10 -3 22 0 26 7 5 8 10 8 21 -1 8 -6 14 -7 14
-2 0 5 14 9 30 8 17 -1 30 2 30 7 0 5 4 6 10 3 5 -3 19 -1 31 6 16 8 20 8 14
-1 -6 -9 -3 -9 12 -1 11 6 23 7 27 4 3 -3 6 -1 6 6 0 7 5 9 10 6 6 -4 7 -12 3
-18 -3 -7 3 -3 15 7 12 11 22 15 22 11 0 -5 5 -4 12 3 8 8 17 8 30 1 14 -7 20
-6 24 5 3 9 12 12 21 9 12 -5 14 -3 8 6 -6 10 -3 11 15 1 14 -7 25 -8 29 -3 3
6 13 10 21 11 38 2 85 15 88 23 2 6 10 5 18 -2 11 -9 14 -9 14 1 0 7 7 10 15
6 8 -3 15 -2 15 3 0 4 10 7 23 7 14 -1 21 4 19 13 -3 12 0 12 12 2 9 -8 16 -8
20 -2 4 6 13 8 21 4 8 -3 15 0 15 7 0 6 4 9 8 6 4 -2 14 -1 22 4 9 5 19 5 27
-2 9 -7 14 -6 19 5 3 9 15 14 29 12 14 -1 22 2 19 6 -5 8 25 13 64 12 6 -1 12
3 12 8 0 5 7 9 15 9 8 0 15 6 15 13 0 8 4 7 10 -3 7 -11 10 -11 10 -2 0 7 4
10 10 7 5 -3 22 2 37 12 15 10 24 12 20 6 -6 -9 -3 -11 7 -7 9 3 16 9 16 13 0
4 6 8 13 9 47 6 74 15 140 48 16 7 25 9 21 3 -3 -6 5 -3 20 6 14 9 33 15 41
11 9 -3 14 -2 11 3 -7 11 22 23 35 15 5 -3 9 0 9 7 0 6 8 9 20 6 11 -3 23 0
27 5 4 7 1 8 -7 3 -9 -5 -11 -4 -6 4 4 6 13 11 19 9 7 -1 35 9 62 22 28 13 56
23 63 23 6 0 12 4 12 9 0 4 9 8 19 8 10 0 22 7 25 16 3 8 11 12 16 9 6 -4 18
-1 26 6 8 6 17 9 21 6 3 -4 17 2 31 13 13 11 28 17 33 14 5 -3 9 -1 9 4 0 6
11 13 25 16 14 4 23 11 20 16 -3 6 1 7 9 4 9 -3 16 -1 16 6 0 6 4 9 9 5 5 -3
12 -1 16 5 3 5 14 10 24 10 9 0 28 10 41 23 14 12 26 21 27 20 9 -9 23 -1 17
10 -4 6 -4 9 1 5 8 -8 80 25 90 42 3 5 15 10 26 10 10 0 19 4 19 9 0 5 11 12
25 15 14 4 23 11 20 16 -4 6 1 7 11 3 12 -4 15 -3 10 5 -5 8 -2 10 8 6 9 -4
16 -1 16 6 0 7 7 10 16 6 8 -3 12 -2 9 4 -3 6 1 10 9 10 9 0 16 5 16 11 0 5 4
8 9 5 5 -3 12 1 15 9 3 8 9 15 13 14 19 -3 34 2 29 10 -3 5 1 12 10 15 10 4
13 2 9 -7 -4 -6 0 -4 8 6 8 9 18 17 22 17 4 0 14 8 22 18 9 10 12 11 7 2 -4
-8 3 -5 15 8 12 12 27 19 33 16 7 -4 8 -2 4 4 -6 11 5 16 20 10 3 -2 10 5 15
15 6 9 14 15 19 12 4 -3 10 2 14 10 3 8 12 15 20 15 7 0 17 7 20 16 3 8 10 13
15 10 5 -4 11 -3 13 1 2 5 16 19 32 33 16 14 26 18 22 10 -5 -9 -2 -8 7 3 8 9
19 17 26 17 6 0 10 3 10 7 -3 20 2 26 11 13 8 -13 10 -12 10 3 0 9 7 17 15 17
8 0 15 3 15 8 0 4 17 18 38 32 20 14 45 34 55 45 10 11 15 13 12 5 -4 -8 5 0
20 18 14 17 35 32 46 32 10 0 18 4 17 9 -2 5 2 10 7 11 6 1 15 11 22 23 7 12
13 18 13 12 0 -5 10 1 21 15 11 14 17 18 13 10 -4 -8 9 1 28 20 57 56 107 100
114 100 4 0 31 25 59 55 29 30 58 55 65 55 8 0 11 3 8 6 -7 7 28 44 41 44 6 0
13 5 17 12 5 7 2 9 -7 4 -8 -4 -5 0 5 8 11 9 24 16 29 16 4 0 6 3 4 8 -4 7 28
42 38 42 3 0 5 2 5 5 -1 11 25 33 33 28 4 -2 7 -1 7 4 0 12 60 77 61 67 0 -5
4 1 10 14 5 14 13 20 20 16 8 -4 9 -3 5 5 -8 12 18 44 28 34 3 -4 6 -1 6 5 0
15 42 58 53 54 5 -1 6 2 2 8 -3 5 -1 10 5 10 6 0 9 4 6 8 -3 5 8 19 25 32 16
14 29 28 29 32 0 4 14 21 30 38 17 17 30 35 30 40 0 6 7 10 15 10 8 0 12 6 9
14 -3 9 3 17 15 21 13 4 18 11 14 22 -4 10 -2 14 4 10 6 -4 19 3 29 16 19 21
19 21 -1 7 -17 -12 -16 -10 3 11 12 14 19 29 15 34 -5 4 -3 5 3 2 7 -4 17 0
24 8 7 8 9 15 6 15 -4 0 -1 6 6 14 7 8 17 11 22 8 5 -3 6 0 3 5 -4 6 4 22 18
34 13 13 25 28 25 33 0 5 8 15 18 23 9 8 11 11 3 7 -9 -5 -7 2 5 18 10 14 22
24 27 21 4 -2 7 5 7 16 0 12 5 21 11 21 5 0 8 4 5 9 -3 5 1 11 9 15 8 3 15 12
15 20 0 8 5 18 12 22 7 5 8 3 3 -6 -5 -8 -4 -11 3 -6 6 4 9 13 6 20 -3 7 2 16
11 20 9 3 14 10 11 15 -3 5 2 12 11 15 15 6 15 8 3 16 -13 8 -12 10 3 10 9 0
17 7 17 15 0 8 5 15 10 15 6 0 10 5 10 11 0 7 8 18 18 26 11 10 12 12 2 8 -9
-4 -8 -1 3 8 10 9 19 19 20 24 1 4 6 7 10 5 5 -1 6 2 3 7 -9 14 5 42 17 34 6
-4 8 0 4 11 -4 10 -1 19 8 22 8 4 13 9 10 14 -2 4 5 17 16 29 11 12 18 25 15
30 -3 5 1 12 10 15 8 3 12 10 9 16 -3 5 -1 10 4 10 6 0 11 7 11 15 0 8 5 15
12 15 6 0 8 3 5 6 -4 4 2 19 13 34 11 15 17 30 13 34 -3 3 -1 6 5 6 7 0 12 7
12 15 0 9 9 28 21 44 11 15 22 36 23 47 2 10 9 18 15 16 6 -1 10 1 10 5 -3 21
2 43 14 55 15 14 17 20 17 44 0 9 5 12 12 8 7 -5 9 -2 6 8 -4 8 2 19 12 26 12
7 16 18 13 32 -3 11 -1 20 5 20 5 0 13 15 16 34 4 19 11 36 16 38 6 2 11 15
12 30 1 15 6 24 10 22 4 -3 9 3 10 13 0 10 2 24 2 31 1 7 7 17 15 21 8 5 11
16 8 26 -4 9 -3 14 3 10 9 -6 14 8 11 28 0 4 4 7 11 7 6 0 9 3 5 6 -3 4 0 19
9 35 8 16 12 29 8 29 -4 0 -1 6 5 13 6 8 8 17 4 20 -3 4 -2 7 4 7 9 0 28 54
24 73 0 4 4 7 10 7 5 0 8 4 5 9 -3 5 1 14 9 21 12 10 13 16 4 26 -9 11 -7 14
7 14 14 0 16 2 6 9 -11 7 -11 11 2 23 8 9 12 18 9 22 -3 3 -1 12 5 19 7 8 9
17 5 20 -3 4 -2 7 3 7 5 0 10 8 11 18 2 25 7 45 16 60 5 6 5 12 1 12 -3 0 -1
7 6 15 6 8 9 19 5 25 -3 5 -1 10 5 10 6 0 10 8 8 18 -1 9 1 23 5 30 5 6 5 12
2 12 -4 0 0 7 9 15 11 12 13 22 6 41 -7 17 -7 23 0 19 6 -3 11 1 11 9 3 29 4
34 11 41 4 4 4 13 1 21 -3 9 2 14 13 14 14 0 15 3 6 8 -10 7 -10 15 -2 36 13
35 13 39 -2 30 -7 -4 -3 3 10 15 23 22 30 37 12 26 -5 -3 -10 -2 -10 4 0 5 4
12 10 16 5 3 7 12 3 20 -3 8 -1 15 4 15 6 0 9 14 8 30 -1 17 2 30 8 30 5 0 7
7 3 15 -3 8 0 15 7 15 8 0 6 4 -3 10 -9 6 -11 10 -3 10 7 0 10 7 7 15 -4 8 -2
15 3 15 5 0 7 14 5 31 -3 20 -1 30 6 26 13 -9 10 26 -3 35 -6 5 -5 8 3 8 7 0
10 5 7 10 -3 6 -1 10 6 10 8 0 8 4 -1 15 -9 11 -9 15 -1 15 7 0 11 8 10 18 -3
33 1 43 14 36 9 -6 9 -4 1 7 -10 13 -10 30 -1 74 2 11 -1 23 -7 27 -7 5 -5 8
5 8 12 0 15 8 13 30 -2 16 0 30 5 30 4 0 8 7 8 15 0 8 -5 15 -10 15 -5 0 -4 6
2 14 9 10 9 16 1 21 -8 5 -8 11 -1 19 7 9 7 17 -2 26 -10 10 -9 12 5 7 12 -4
16 -1 13 14 -2 10 -7 24 -11 31 -5 7 -3 8 6 3 10 -6 12 -3 8 12 -3 12 -2 26 2
33 4 7 4 27 0 46 -5 23 -4 32 3 27 6 -4 8 0 4 10 -4 10 -1 17 6 17 8 0 6 4 -3
10 -8 5 -11 10 -6 10 5 0 2 8 -5 17 -8 9 -9 14 -2 10 16 -10 21 11 13 55 -4
22 -3 41 4 48 8 8 7 13 -4 20 -8 5 -10 10 -5 10 7 0 11 47 12 130 0 93 -3 128
-11 123 -8 -5 -8 -3 0 8 12 16 13 148 1 167 -5 8 -3 20 5 29 7 10 8 14 1 10
-12 -7 -12 10 -1 28 4 6 3 17 -2 25 -5 9 -4 20 3 29 9 11 9 13 0 8 -8 -5 -11
9 -10 53 1 33 0 60 -3 60 -3 0 -6 9 -7 20 -1 11 2 18 7 15 6 -3 7 1 4 9 -3 9
-11 16 -18 16 -6 0 -4 5 4 10 10 6 11 10 3 10 -7 0 -13 5 -13 11 0 5 4 8 9 4
12 -7 5 33 -8 49 -6 7 -6 17 -1 26 5 8 6 19 2 25 -11 17 -11 39 -1 51 7 8 6
15 -2 20 -8 5 -10 3 -4 -7 5 -8 4 -10 0 -6 -14 12 -15 37 -2 37 7 0 5 5 -3 10
-8 5 -10 10 -5 10 6 0 3 5 -5 11 -11 8 -12 12 -3 16 9 3 10 10 3 24 -6 10 -8
19 -4 19 3 0 0 8 -7 17 -10 11 -10 14 -1 9 6 -4 12 -3 12 3 0 5 -5 13 -10 16
-6 4 -8 11 -5 16 4 5 0 9 -7 9 -10 0 -10 2 1 9 7 5 9 11 4 14 -5 4 -10 23 -11
44 -1 21 -6 39 -12 41 -5 2 -10 8 -10 13 0 6 4 7 10 4 6 -4 6 4 0 21 -6 15 -9
33 -6 40 3 8 -1 20 -10 28 -9 10 -11 17 -4 21 8 5 7 11 0 20 -7 8 -9 19 -5 25
3 5 0 10 -7 10 -10 0 -10 2 1 9 9 6 9 10 2 12 -6 2 -12 16 -13 32 -1 15 -6 27
-10 27 -4 0 -8 5 -8 11 0 5 6 7 13 4 6 -4 3 1 -7 9 -13 11 -15 16 -6 16 9 0 8
6 -6 22 -10 12 -13 18 -6 14 15 -9 16 6 0 22 -7 7 -9 12 -5 12 3 0 0 18 -8 40
-8 22 -11 40 -8 40 3 0 -2 10 -13 22 -10 12 -13 18 -6 14 6 -4 12 -2 12 3 0 6
-4 11 -10 11 -5 0 -7 6 -4 14 3 8 0 17 -6 21 -8 5 -7 11 2 23 10 12 10 14 1 8
-12 -6 -18 11 -14 37 0 4 -3 7 -7 7 -7 0 -12 21 -16 67 0 11 -5 19 -10 15 -5
-3 -7 2 -3 11 4 10 2 16 -6 14 -7 -1 -11 4 -9 12 1 7 -1 18 -6 25 -5 6 -8 19
-7 29 2 9 -1 17 -7 17 -5 0 -6 9 -3 20 4 11 3 20 -2 19 -20 -3 -27 2 -13 11
10 6 11 10 3 10 -8 0 -13 13 -13 30 0 17 -4 30 -10 30 -5 0 -10 9 -10 20 0 11
-5 20 -11 20 -6 0 -9 7 -6 15 4 8 2 17 -4 20 -5 4 -7 11 -4 16 4 5 1 9 -5 9
-6 0 -8 5 -5 10 3 6 2 10 -4 10 -6 0 -8 7 -5 15 4 8 1 15 -6 15 -7 0 -10 7 -6
15 3 8 1 15 -5 15 -6 0 -7 5 -4 10 3 6 1 10 -6 10 -7 0 -9 3 -6 7 4 3 -1 15
-10 26 -10 11 -12 17 -5 13 6 -4 12 -2 12 3 0 6 -4 11 -9 11 -9 0 -22 28 -27
59 -2 8 -9 18 -16 22 -7 5 -9 9 -4 9 5 0 3 7 -4 15 -6 8 -9 18 -6 23 3 6 -1
15 -10 22 -8 7 -13 19 -10 26 3 8 -3 18 -12 23 -9 6 -13 11 -9 11 5 0 1 7 -7
16 -9 8 -14 20 -11 25 4 5 1 9 -5 9 -6 0 -8 5 -5 10 3 6 1 10 -5 10 -6 0 -8 5
-5 10 3 6 1 10 -5 10 -6 0 -8 5 -5 10 3 6 1 10 -6 10 -7 0 -10 3 -6 6 3 4 -1
13 -9 21 -8 8 -12 19 -9 24 4 5 1 9 -5 9 -6 0 -8 5 -5 10 3 6 -1 13 -9 16 -9
3 -13 10 -10 16 3 5 -2 18 -12 29 -9 10 -14 19 -10 19 4 0 0 7 -8 16 -9 8 -14
19 -11 24 3 4 -2 11 -11 14 -9 3 -14 13 -11 20 3 8 -1 17 -9 20 -8 3 -14 15
-14 26 0 12 -4 18 -10 15 -9 -5 -15 16 -11 38 1 5 -3 6 -9 2 -9 -5 -12 1 -9
21 0 4 -5 10 -13 15 -7 5 -13 12 -13 17 0 5 -8 17 -18 27 -10 10 -16 26 -14
36 3 13 0 16 -11 12 -9 -4 -13 -2 -9 4 4 6 -2 18 -13 28 -11 10 -17 22 -14 26
3 5 1 9 -5 9 -5 0 -13 9 -16 20 -4 11 -18 32 -31 45 -14 14 -20 25 -14 25 6 0
-1 11 -15 25 -14 14 -25 30 -25 35 0 5 -6 15 -12 22 -37 40 -52 61 -38 54 8
-5 3 3 -12 16 -15 14 -25 28 -21 32 3 3 1 6 -6 6 -7 0 -10 4 -7 8 3 5 -4 15
-15 22 -10 8 -19 20 -19 26 0 7 -7 15 -16 18 -9 4 -14 9 -11 13 4 3 -7 19 -23
35 -17 15 -30 32 -30 37 0 5 -7 14 -15 21 -8 7 -12 16 -9 21 3 5 -2 9 -10 9
-9 0 -22 14 -31 30 -9 17 -21 30 -28 30 -8 0 -7 4 3 10 13 8 13 10 -2 10 -20
0 -61 54 -50 65 4 5 2 6 -4 2 -5 -3 -19 6 -30 20 -10 15 -34 42 -51 60 -18 18
-33 36 -33 40 -1 4 -14 19 -30 33 -17 13 -30 28 -30 33 0 11 -27 38 -37 37 -4
0 -8 5 -8 10 0 6 -4 9 -9 8 -5 -2 -13 7 -17 20 -5 13 -13 21 -17 18 -5 -3 -16
8 -26 25 -9 16 -24 29 -32 29 -8 0 -13 4 -10 8 6 10 -30 43 -38 35 -3 -4 -6
-1 -6 6 0 16 -25 41 -40 41 -6 0 -8 5 -5 11 4 6 -2 13 -14 16 -11 3 -19 9 -16
13 2 4 -7 12 -20 18 -14 7 -25 19 -25 28 0 10 -3 15 -6 11 -9 -9 -44 25 -37
37 3 6 3 8 -2 4 -4 -4 -15 1 -24 10 -10 11 -12 12 -6 2 5 -8 -11 5 -36 30 -57
56 -111 100 -122 100 -4 0 -5 5 -2 10 3 6 0 10 -7 10 -7 0 -21 9 -33 19 -57
55 -77 71 -85 71 -15 0 -49 37 -42 45 4 3 -2 3 -13 -1 -11 -4 -17 -3 -12 1 4
5 -18 25 -48 45 -30 20 -52 40 -48 45 5 4 3 5 -4 1 -6 -3 -15 -1 -18 4 -4 6
-18 15 -32 21 -14 5 -21 14 -17 21 4 6 3 8 -3 5 -6 -4 -16 0 -23 8 -7 8 -18
15 -25 15 -7 0 -16 7 -19 16 -3 9 -12 14 -18 12 -7 -3 -21 6 -32 19 -10 13
-25 22 -32 19 -8 -3 -14 1 -14 9 0 8 -6 14 -12 12 -7 -1 -12 4 -10 11 1 8 -2
11 -7 8 -5 -4 -16 0 -24 8 -8 8 -17 12 -21 9 -3 -4 -6 -1 -6 5 0 7 -7 12 -15
12 -9 0 -18 7 -21 15 -4 8 -10 13 -14 10 -5 -3 -16 2 -24 11 -9 8 -16 12 -16
7 0 -4 -4 -3 -8 3 -4 6 -23 19 -42 29 -19 10 -41 25 -48 34 -10 12 -12 13 -6
1 5 -10 1 -9 -14 3 -12 11 -26 16 -33 11 -7 -4 -10 -3 -7 2 3 5 -1 16 -10 24
-9 8 -17 13 -17 11 0 -8 -45 11 -45 19 0 5 -7 6 -17 3 -10 -4 -14 -2 -10 4 6
10 -10 19 -52 28 -8 2 -18 10 -22 17 -5 7 -9 9 -9 3 0 -7 -3 -7 -8 0 -12 16
-69 45 -76 38 -3 -3 -6 -1 -6 5 0 7 -3 11 -7 10 -15 -3 -43 14 -37 23 3 5 0 9
-5 9 -6 0 -11 -6 -11 -12 0 -7 -5 -5 -11 5 -6 9 -14 15 -20 12 -5 -4 -9 -1 -9
6 0 7 -3 9 -7 6 -3 -4 -15 1 -26 10 -13 11 -17 13 -12 4 5 -8 -9 -1 -30 15
-22 16 -36 23 -31 17 4 -7 2 -13 -3 -13 -6 0 -11 4 -11 9 0 5 -22 17 -50 27
-27 10 -50 22 -50 27 0 4 -4 6 -9 2 -5 -3 -13 0 -16 6 -4 5 -13 8 -21 5 -8 -3
-14 -1 -14 5 0 6 -5 7 -10 4 -6 -3 -13 1 -16 10 -6 13 -8 14 -15 3 -7 -10 -9
-10 -9 0 0 6 -9 12 -20 12 -11 0 -20 5 -20 11 0 5 -4 7 -10 4 -5 -3 -22 2 -37
12 -15 10 -24 12 -20 6 6 -9 3 -11 -7 -7 -9 3 -13 11 -9 17 4 6 -2 8 -15 5
-12 -4 -22 -2 -22 3 0 5 -11 9 -25 9 -14 0 -25 5 -25 12 0 6 -3 9 -6 5 -4 -3
-20 1 -36 9 -21 11 -28 12 -22 3 4 -7 -8 -2 -26 11 -18 13 -30 17 -25 9 5 -7
-2 -5 -15 6 -14 12 -20 14 -15 5 7 -12 6 -13 -7 -3 -8 7 -18 10 -21 6 -4 -3
-7 -1 -7 5 0 6 -9 9 -19 7 -11 -2 -22 3 -25 11 -3 7 -12 11 -21 8 -8 -3 -15
-2 -15 3 0 5 -13 8 -30 7 -22 -1 -30 3 -31 14 0 11 -2 12 -6 4 -2 -6 -9 -10
-14 -6 -5 3 -18 7 -29 10 -11 2 -29 6 -40 8 -11 3 -25 8 -32 12 -13 8 -52 16
-80 15 -10 0 -18 4 -18 8 0 5 -11 9 -25 10 -46 3 -55 4 -55 10 0 3 -14 7 -31
8 -17 1 -37 7 -43 12 -9 7 -16 7 -24 -1 -8 -8 -13 -7 -18 6 -5 14 -9 15 -15 4
-7 -11 -9 -11 -9 1 0 11 -3 11 -17 0 -9 -8 -14 -9 -10 -3 4 7 -3 14 -18 16
-16 4 -22 1 -18 -6 4 -6 -6 -3 -21 8 -16 10 -25 13 -22 7 4 -6 2 -11 -3 -11
-6 0 -11 5 -11 11 0 6 -8 8 -19 4 -11 -3 -23 -1 -26 6 -6 8 -10 7 -16 -2 -5
-8 -9 -9 -9 -3 0 6 -14 11 -32 12 -17 0 -35 7 -39 14 -6 9 -9 9 -9 1 0 -8 -9
-9 -27 -4 -16 4 -35 7 -43 6 -8 0 -18 4 -22 10 -5 6 -8 6 -8 -2 0 -7 -7 -10
-15 -7 -8 4 -12 11 -8 18 4 7 2 7 -8 -1 -12 -10 -18 -10 -29 0 -10 10 -11 9
-5 -3 8 -13 7 -13 -10 0 -21 17 -24 17 -36 -2 -6 -8 -9 -9 -9 -1 0 6 -11 10
-25 8 -14 -1 -25 3 -25 9 0 6 -5 4 -10 -4 -7 -11 -10 -12 -10 -2 0 9 -7 11
-21 7 -16 -6 -20 -4 -13 6 6 12 5 12 -8 1 -10 -8 -19 -9 -22 -3 -4 6 -18 6
-36 1 -23 -7 -32 -5 -40 8 -7 13 -9 13 -10 3 0 -8 -3 -11 -7 -8 -3 4 -12 2
-19 -4 -8 -7 -14 -6 -20 2 -4 8 -3 9 4 5 7 -4 12 -2 12 3 0 14 -6 14 -32 0
-15 -8 -19 -8 -14 0 4 6 3 11 -3 11 -5 0 -12 -6 -14 -12 -4 -9 -8 -9 -14 -3
-12 15 -75 16 -92 2 -12 -9 -13 -9 -7 1 6 10 -45 12 -251 11 -142 -1 -262 -5
-268 -9 -13 -9 -45 -9 -40 1 3 4 -6 6 -20 5 -15 0 -25 -7 -25 -16 -1 -11 -4
-10 -15 4 -8 11 -15 15 -15 8z m554 -2213 c3 5 21 5 40 1 22 -5 38 -4 45 3 8
8 11 8 11 -1 0 -16 30 -16 31 1 0 9 2 9 6 -1 2 -6 9 -10 14 -6 5 3 9 -1 9 -8
0 -9 3 -9 10 2 8 13 10 13 10 1 0 -11 4 -9 15 5 11 14 14 15 9 3 -3 -10 0 -20
7 -25 8 -4 10 -3 5 4 -5 8 1 11 18 10 15 -1 26 -6 26 -10 0 -9 23 -6 30 4 3 4
18 1 33 -7 19 -10 25 -10 20 -2 -4 7 6 4 21 -7 16 -10 25 -13 22 -7 -4 6 0 11
9 11 9 0 13 -4 10 -10 -9 -14 8 -13 23 2 9 9 12 9 12 -1 0 -7 5 -9 10 -6 6 4
18 1 27 -7 14 -11 16 -11 9 0 -7 12 -4 12 15 1 13 -7 38 -13 56 -14 17 0 39
-8 49 -16 16 -12 17 -12 9 1 -8 13 -7 13 8 1 13 -10 17 -10 17 -1 0 10 3 10
15 0 9 -7 28 -14 43 -16 15 -1 28 -3 30 -4 1 -1 7 -4 12 -5 6 -1 11 -3 13 -5
5 -4 43 -11 64 -12 15 0 20 -5 15 -17 -5 -14 -3 -14 10 -3 11 9 18 10 23 2 3
-6 10 -8 15 -5 5 3 12 0 15 -6 4 -5 13 -8 21 -5 7 3 16 1 19 -5 4 -5 11 -7 16
-4 5 4 9 2 9 -3 0 -6 8 -8 18 -5 10 2 26 -5 36 -16 10 -11 24 -17 32 -14 7 3
30 -5 51 -18 34 -21 36 -21 23 -4 -14 19 -14 19 5 4 20 -16 49 -30 74 -35 8
-1 17 -8 21 -14 4 -6 11 -10 16 -9 21 4 35 -2 29 -11 -3 -5 0 -7 8 -4 8 3 18
1 22 -5 3 -6 15 -11 26 -11 10 0 19 -5 19 -12 0 -6 3 -8 6 -5 4 3 18 -3 32
-13 13 -11 33 -20 43 -20 11 0 19 -4 19 -10 0 -5 6 -7 14 -4 8 3 20 -3 27 -14
7 -11 19 -18 26 -15 7 3 13 0 13 -7 0 -7 7 -10 16 -6 8 3 13 2 10 -2 -3 -5 11
-14 30 -21 20 -7 32 -17 28 -23 -5 -7 -1 -9 9 -5 10 3 17 3 17 -2 0 -5 11 -12
25 -15 14 -4 25 -10 25 -15 0 -5 14 -14 30 -21 17 -7 30 -16 30 -21 0 -5 9 -9
21 -9 11 0 17 -4 14 -10 -3 -5 1 -10 9 -10 9 0 25 -8 35 -17 38 -35 51 -44 51
-36 0 4 5 0 11 -9 5 -10 17 -18 24 -18 8 0 15 -4 15 -10 0 -5 7 -10 16 -10 8
0 12 -4 9 -10 -3 -6 4 -10 17 -10 18 0 20 -2 8 -10 -13 -8 -12 -10 3 -10 20 0
35 -11 74 -52 15 -16 32 -28 40 -28 7 0 13 -4 13 -10 0 -5 6 -10 14 -10 8 0
17 -9 21 -20 3 -11 12 -19 18 -17 7 1 11 -4 9 -10 -1 -7 4 -13 12 -13 7 0 19
-7 26 -15 7 -8 16 -12 21 -9 5 3 9 2 8 -3 -3 -18 1 -33 10 -31 4 2 25 -15 45
-36 20 -22 36 -36 37 -30 0 5 4 -1 10 -14 5 -13 13 -20 19 -17 5 3 10 1 10 -5
0 -15 25 -40 41 -40 7 0 10 -3 6 -6 -8 -9 44 -64 55 -58 5 3 7 2 6 -3 -5 -15
34 -63 46 -56 6 3 8 3 4 -1 -6 -7 13 -35 55 -78 9 -10 17 -21 17 -24 0 -3 11
-15 25 -26 14 -11 25 -26 25 -34 0 -8 5 -14 10 -14 6 0 10 -6 10 -13 0 -7 9
-19 19 -27 11 -7 18 -17 15 -22 -3 -4 2 -11 10 -14 9 -3 16 -15 16 -25 0 -11
7 -19 17 -19 9 0 14 -3 10 -6 -3 -3 -2 -11 3 -18 49 -60 59 -74 53 -80 -3 -3
-1 -6 5 -6 7 0 12 -7 12 -15 0 -8 5 -15 10 -15 6 0 10 -7 10 -15 0 -8 5 -15
10 -15 6 0 10 -9 10 -20 0 -10 6 -23 13 -27 6 -4 19 -17 27 -27 13 -18 13 -19
0 -11 -8 5 1 -11 20 -35 19 -24 29 -41 23 -37 -7 5 -13 4 -13 -2 0 -6 7 -11
16 -11 8 0 13 -4 10 -9 -4 -5 -2 -11 4 -13 6 -2 12 -14 15 -28 3 -14 9 -26 15
-28 6 -2 8 -8 4 -13 -3 -5 0 -9 6 -9 6 0 8 -4 5 -10 -3 -5 -1 -10 6 -10 7 0
10 -3 6 -6 -3 -4 1 -13 9 -22 13 -12 13 -16 2 -23 -10 -7 -8 -9 6 -9 12 0 16
-5 12 -15 -3 -8 -1 -15 4 -15 6 0 10 -7 10 -15 0 -8 4 -15 8 -15 9 0 12 -16
13 -59 1 -18 3 -21 10 -10 7 12 9 12 10 -1 1 -8 1 -18 0 -22 0 -5 4 -8 10 -8
5 0 7 -4 4 -10 -3 -5 -2 -10 4 -10 5 0 8 -11 7 -25 -2 -13 1 -22 5 -19 8 5 13
-10 10 -28 0 -5 3 -8 8 -8 6 0 8 -9 6 -20 -2 -11 1 -20 6 -20 6 0 8 -4 5 -9
-4 -5 -2 -11 4 -13 5 -1 11 -18 13 -36 2 -19 8 -37 13 -40 5 -4 9 -14 9 -22 0
-8 7 -24 17 -34 11 -13 14 -23 8 -31 -5 -6 -5 -17 0 -25 5 -8 6 -18 4 -22 -3
-4 -1 -8 5 -8 5 0 8 -9 6 -20 -2 -11 1 -20 6 -20 6 0 8 -4 4 -9 -3 -5 2 -17
11 -25 10 -10 11 -16 3 -16 -8 0 -8 -5 2 -17 12 -15 12 -16 -1 -8 -13 8 -13 7
-1 -8 7 -9 10 -17 6 -17 -4 0 -3 -6 2 -12 6 -7 9 -21 8 -30 -2 -10 0 -18 5
-18 4 0 6 -14 5 -30 -1 -17 1 -33 6 -36 5 -3 7 -10 4 -15 -4 -5 -2 -9 3 -9 5
0 8 -16 7 -35 -1 -19 2 -35 6 -35 5 0 6 -7 3 -15 -4 -8 -1 -15 6 -15 6 0 8 -5
4 -12 -10 -16 -13 -48 -3 -43 4 3 9 -4 12 -15 3 -13 1 -18 -6 -13 -7 4 -6 -1
2 -10 10 -13 10 -17 1 -17 -9 0 -10 -3 -1 -13 6 -8 8 -17 4 -20 -3 -4 -1 -7 6
-7 8 0 9 -5 2 -19 -6 -10 -7 -21 -3 -25 3 -4 7 -19 8 -34 1 -15 5 -40 8 -56 6
-27 6 -28 -11 -15 -13 11 -12 7 4 -17 13 -18 18 -35 14 -43 -5 -7 -7 -25 -5
-39 7 -63 7 -139 0 -150 -4 -7 -2 -12 4 -12 6 0 8 -5 4 -12 -4 -6 -6 -40 -5
-75 2 -42 -2 -70 -11 -81 -7 -9 -8 -13 -2 -9 19 11 26 -24 9 -43 -11 -12 -12
-19 -3 -28 9 -9 9 -15 0 -24 -7 -7 -8 -17 -2 -29 7 -12 6 -20 -2 -25 -7 -5 -8
-3 -3 6 5 9 4 11 -4 6 -6 -4 -8 -13 -4 -19 11 -17 12 -37 3 -37 -11 0 -7 -33
5 -42 6 -5 6 -8 -1 -8 -6 0 -11 -15 -11 -32 1 -20 -4 -32 -11 -31 -6 2 -9 -4
-6 -12 4 -8 10 -13 15 -10 4 3 2 -7 -6 -21 -8 -15 -11 -32 -8 -37 3 -5 -1 -13
-8 -18 -11 -7 -11 -9 -1 -9 7 0 10 -5 7 -10 -7 -12 -17 -57 -19 -82 0 -10 -5
-18 -11 -18 -5 0 -3 -5 5 -10 12 -7 12 -10 1 -10 -7 0 -11 -6 -8 -15 4 -8 2
-17 -4 -20 -5 -4 -7 -10 -4 -15 8 -14 -6 -40 -19 -33 -6 4 -6 0 2 -9 9 -11 10
-18 2 -23 -6 -3 -7 -11 -4 -17 4 -6 0 -14 -7 -19 -11 -7 -11 -9 -1 -9 10 0 10
-3 -1 -15 -9 -8 -14 -26 -12 -41 1 -15 -3 -28 -12 -31 -11 -4 -11 -8 -1 -21
10 -12 10 -14 1 -8 -8 4 -13 1 -14 -8 -1 -9 -2 -26 -3 -38 -1 -13 -7 -22 -13
-21 -5 1 -9 -9 -7 -22 1 -14 -2 -27 -7 -31 -5 -3 -7 -10 -4 -15 4 -5 1 -9 -5
-9 -6 0 -9 -4 -6 -8 3 -5 -2 -20 -12 -33 -9 -13 -15 -32 -14 -41 2 -10 -2 -18
-8 -18 -6 0 -8 -5 -5 -10 4 -6 1 -17 -5 -25 -7 -8 -9 -15 -4 -15 4 0 -1 -7
-12 -16 -10 -8 -13 -13 -6 -9 6 3 12 1 12 -5 0 -6 -7 -13 -15 -16 -8 -4 -12
-10 -9 -16 3 -5 -2 -18 -11 -28 -9 -10 -14 -24 -10 -29 3 -6 2 -11 -4 -11 -6
0 -7 -7 -4 -17 4 -11 3 -14 -5 -9 -8 4 -12 0 -12 -11 0 -10 -7 -28 -15 -39 -8
-12 -11 -25 -7 -29 4 -5 -2 -5 -12 -1 -16 5 -17 4 -7 -8 10 -11 8 -17 -6 -25
-10 -6 -14 -11 -9 -11 5 0 3 -7 -4 -15 -7 -8 -9 -15 -6 -15 4 0 0 -7 -8 -16
-9 -8 -14 -20 -11 -25 4 -5 2 -9 -4 -9 -5 0 -13 -10 -17 -22 -4 -13 -14 -29
-23 -36 -13 -11 -13 -12 -1 -7 8 4 6 -1 -4 -9 -11 -9 -17 -18 -14 -22 3 -3 -5
-17 -18 -31 -13 -14 -21 -29 -19 -34 3 -4 -3 -12 -12 -18 -10 -5 -15 -13 -11
-17 4 -4 -2 -16 -15 -28 -12 -12 -21 -30 -20 -41 2 -11 0 -14 -3 -7 -8 18 -24
4 -17 -15 4 -11 3 -14 -5 -9 -8 5 -12 0 -12 -14 0 -12 -4 -18 -10 -15 -5 3
-10 -1 -10 -10 0 -8 -7 -18 -16 -22 -8 -3 -13 -11 -10 -18 3 -8 -2 -16 -10
-19 -9 -3 -12 -11 -8 -17 4 -7 3 -9 -3 -6 -6 4 -17 -1 -24 -10 -12 -14 -12
-16 1 -9 13 6 13 5 0 -6 -27 -23 -60 -75 -52 -82 4 -4 2 -6 -4 -4 -12 3 -54
-39 -54 -54 0 -5 -4 -6 -10 -3 -5 3 -10 -1 -10 -9 0 -9 -4 -16 -10 -16 -5 0
-10 -6 -10 -14 0 -8 -5 -18 -12 -22 -7 -4 -8 -3 -4 4 4 7 4 12 1 12 -3 0 -11
-13 -16 -30 -6 -16 -15 -28 -19 -25 -4 3 -16 -7 -25 -22 -22 -33 -104 -113
-116 -113 -5 0 -9 -6 -9 -14 0 -8 -9 -18 -21 -21 -11 -4 -18 -9 -15 -12 2 -3
-6 -15 -19 -28 -14 -12 -21 -26 -17 -30 4 -5 1 -5 -6 -1 -8 5 -23 -3 -39 -21
-15 -15 -31 -27 -35 -26 -4 2 -8 -4 -8 -12 0 -8 -5 -15 -10 -15 -6 0 -21 -11
-33 -23 -12 -13 -32 -29 -45 -36 -12 -7 -20 -17 -16 -23 4 -6 1 -9 -7 -6 -7 2
-26 -8 -41 -24 -15 -15 -30 -28 -33 -28 -3 0 -15 -9 -27 -20 -12 -10 -25 -17
-29 -15 -4 3 -10 -4 -14 -15 -4 -11 -11 -18 -16 -15 -5 4 -21 -6 -36 -22 -16
-15 -29 -26 -30 -25 -9 7 -23 0 -18 -8 3 -5 -1 -10 -9 -10 -9 0 -16 -5 -16
-11 0 -5 -4 -7 -10 -4 -5 3 -21 -5 -35 -19 -14 -14 -25 -22 -25 -19 0 3 -10
-2 -22 -13 -14 -13 -19 -14 -14 -4 4 8 -2 4 -13 -9 -12 -13 -21 -20 -21 -16 0
4 -15 -4 -34 -18 -18 -15 -36 -23 -40 -20 -3 4 -6 1 -6 -6 0 -7 -4 -9 -10 -6
-5 3 -10 1 -10 -5 0 -6 -4 -8 -10 -5 -5 3 -10 1 -10 -6 0 -7 -3 -10 -6 -6 -4
3 -13 -1 -21 -9 -8 -8 -19 -12 -24 -8 -5 3 -12 -2 -15 -11 -4 -9 -13 -14 -20
-11 -7 3 -16 0 -20 -6 -5 -7 -2 -8 6 -3 9 5 11 4 6 -4 -4 -6 -12 -9 -17 -5 -5
3 -16 0 -24 -6 -8 -6 -18 -9 -23 -6 -5 3 -17 -3 -27 -14 -10 -11 -22 -17 -26
-14 -5 3 -9 0 -9 -6 0 -7 -7 -10 -15 -6 -8 3 -15 1 -15 -5 0 -6 -7 -8 -16 -5
-8 3 -12 2 -9 -4 3 -5 -12 -14 -34 -20 -22 -6 -43 -14 -45 -19 -5 -8 -64 -25
-78 -22 -5 0 -8 -4 -8 -10 0 -5 -5 -7 -10 -4 -6 3 -13 -1 -16 -10 -5 -12 -9
-13 -20 -4 -9 7 -14 7 -14 1 0 -5 -16 -13 -35 -16 -19 -4 -35 -11 -35 -16 0
-5 -7 -7 -15 -4 -9 4 -15 0 -15 -7 0 -11 -3 -11 -10 1 -8 12 -10 12 -10 1 0
-8 -7 -11 -20 -8 -11 3 -18 1 -14 -4 4 -8 -25 -14 -48 -10 -5 0 -8 -3 -8 -8 0
-6 -8 -10 -17 -10 -39 -1 -53 -5 -53 -13 0 -5 -5 -6 -10 -3 -6 4 -17 2 -25 -5
-9 -7 -15 -8 -20 -1 -4 7 -15 5 -31 -5 -13 -9 -24 -12 -24 -8 0 5 -5 2 -10 -6
-5 -8 -10 -10 -10 -4 0 6 -7 11 -15 11 -8 0 -12 -4 -9 -9 3 -4 -6 -8 -20 -8
-14 0 -26 -6 -26 -12 0 -8 -3 -9 -8 -3 -9 13 -32 12 -61 -4 -14 -8 -21 -9 -17
-2 4 6 2 11 -3 11 -6 0 -11 -4 -11 -10 0 -5 -13 -8 -30 -6 -17 2 -27 -1 -24
-6 4 -6 -2 -7 -16 -3 -17 5 -21 4 -16 -6 4 -8 0 -5 -8 5 -13 16 -16 16 -16 5
0 -10 -8 -15 -22 -14 -13 1 -31 -2 -40 -6 -10 -6 -19 -5 -23 1 -4 7 -12 7 -25
0 -25 -13 -33 -13 -24 3 6 9 5 9 -8 0 -8 -7 -18 -10 -21 -6 -4 3 -7 1 -7 -6 0
-7 -4 -9 -10 -6 -17 11 -51 14 -45 5 3 -5 -10 -7 -30 -6 -19 2 -38 0 -41 -5
-3 -5 -12 -5 -22 0 -11 6 -24 6 -35 0 -11 -7 -17 -6 -17 1 0 7 -6 8 -18 1 -11
-6 -24 -6 -34 0 -10 5 -19 5 -22 0 -3 -4 -23 -5 -45 -1 -25 4 -44 3 -50 -3 -8
-8 -11 -7 -11 2 0 7 -5 9 -12 5 -17 -11 -58 -11 -58 -1 0 5 -14 6 -31 2 -25
-6 -30 -4 -24 6 5 8 -1 6 -13 -5 -20 -17 -22 -18 -28 -2 -5 14 -9 15 -15 4 -7
-10 -9 -10 -9 2 0 12 -2 12 -9 2 -6 -11 -11 -10 -25 3 -9 9 -16 12 -16 8 0 -5
-19 -8 -42 -7 -24 2 -43 4 -43 5 0 1 -18 3 -40 4 -22 2 -42 4 -45 5 -3 1 -8 2
-12 1 -5 0 -8 4 -8 10 0 8 -4 9 -13 0 -8 -6 -17 -8 -20 -5 -3 3 -23 8 -44 11
-21 3 -46 9 -55 14 -13 7 -18 6 -18 -3 0 -8 -3 -9 -8 -3 -9 12 -28 18 -64 19
-16 1 -28 4 -28 8 0 4 -7 5 -15 2 -8 -4 -15 -1 -15 5 0 6 -6 8 -14 5 -8 -3
-17 0 -21 6 -6 9 -10 9 -16 -1 -7 -11 -9 -11 -9 -1 0 7 -4 11 -9 7 -5 -3 -17
2 -25 11 -9 8 -16 10 -16 4 0 -8 -6 -8 -20 0 -11 6 -20 8 -20 4 0 -3 -12 1
-26 11 -18 11 -24 13 -19 4 5 -8 -2 -5 -15 6 -14 12 -20 14 -15 5 8 -13 7 -13
-8 -1 -9 7 -17 10 -17 6 0 -4 -7 -2 -15 5 -9 7 -18 10 -22 7 -3 -4 -12 -2 -19
4 -8 6 -20 9 -29 5 -8 -3 -14 0 -12 6 1 7 -2 12 -8 13 -5 0 -16 4 -22 8 -8 5
-13 3 -13 -5 0 -9 -3 -9 -10 2 -5 8 -10 11 -10 7 0 -5 -7 -1 -16 7 -8 9 -20
14 -25 11 -5 -4 -9 -1 -9 5 0 6 -6 10 -12 8 -7 -1 -24 4 -36 11 -13 7 -26 10
-29 7 -3 -3 -12 2 -20 12 -10 11 -12 12 -8 2 4 -8 -1 -6 -10 5 -9 11 -18 18
-21 17 -3 -2 -24 4 -47 14 -23 10 -45 17 -49 16 -5 -1 -8 3 -8 9 0 5 -4 7 -10
4 -5 -3 -10 -1 -10 4 0 6 -7 11 -16 11 -9 0 -12 5 -8 13 5 8 2 8 -9 -2 -11 -9
-17 -10 -17 -2 0 6 -7 11 -15 11 -8 0 -15 5 -15 11 0 5 -4 7 -10 4 -5 -3 -10
-1 -10 5 0 6 -4 8 -10 5 -5 -3 -10 -1 -10 4 0 6 -5 11 -12 11 -6 0 -20 8 -31
17 -15 13 -19 14 -13 3 4 -9 2 -8 -7 3 -8 9 -22 17 -31 17 -9 0 -16 5 -16 10
0 6 -7 10 -15 10 -8 0 -15 5 -15 11 0 5 -4 7 -10 4 -5 -3 -10 -1 -10 5 0 6 -4
8 -10 5 -5 -3 -10 -2 -10 2 0 5 -17 17 -37 28 -20 11 -50 31 -65 43 -15 13
-36 25 -45 27 -10 1 -17 8 -16 14 2 6 -8 13 -21 17 -14 3 -27 13 -30 21 -4 8
-13 13 -21 9 -8 -3 -14 -2 -12 2 1 4 -2 8 -6 9 -5 1 -17 12 -28 24 -10 12 -19
18 -19 13 0 -5 -11 3 -24 19 -13 15 -27 27 -32 27 -5 0 -17 8 -26 18 -28 29
-46 41 -52 35 -3 -4 -6 1 -6 10 0 8 -9 19 -20 22 -11 3 -25 15 -30 26 -6 10
-18 19 -27 19 -9 0 -14 3 -10 6 9 9 -19 34 -38 34 -9 0 -14 4 -11 9 3 4 -3 16
-14 26 -11 10 -20 14 -20 9 0 -5 -8 3 -18 19 -10 15 -22 24 -27 20 -4 -5 -5 0
-2 9 3 10 3 17 -1 16 -12 -4 -82 66 -82 81 0 8 -3 11 -6 8 -9 -8 -64 55 -58
65 3 5 2 8 -3 7 -4 -1 -15 -1 -23 0 -13 1 -13 2 0 11 13 9 13 10 0 11 -8 1
-19 1 -23 0 -5 -1 -6 3 -3 8 4 6 -9 26 -29 45 -19 19 -35 39 -35 43 0 5 -8 16
-17 25 -25 23 -45 48 -39 48 3 0 -5 11 -17 24 -36 39 -47 55 -47 65 0 5 -7 12
-16 15 -9 3 -14 13 -11 21 4 8 -2 16 -14 20 -10 4 -17 11 -14 16 4 5 1 9 -5 9
-6 0 -9 4 -6 9 3 5 -1 12 -10 15 -8 3 -12 10 -9 16 3 5 1 10 -4 10 -6 0 -11 6
-11 14 0 8 -7 17 -16 20 -9 4 -14 9 -10 13 3 4 -4 18 -16 31 -13 14 -16 22 -8
18 8 -4 6 0 -4 8 -11 9 -16 16 -10 16 5 0 1 5 -9 11 -9 6 -15 14 -12 20 4 5 2
9 -3 9 -4 0 -14 16 -22 35 -8 19 -18 35 -22 35 -5 0 -6 5 -3 10 3 6 1 10 -5
10 -7 0 -10 6 -7 14 3 8 -1 17 -9 20 -9 3 -12 10 -9 16 3 5 2 10 -4 10 -9 0
-24 32 -26 53 0 4 -6 11 -13 16 -8 5 -13 11 -12 15 3 13 -33 96 -42 96 -5 0
-7 4 -3 9 3 5 0 13 -6 16 -5 4 -8 13 -5 21 3 8 1 14 -4 14 -5 0 -13 12 -16 28
-4 15 -11 32 -16 39 -5 7 -7 17 -3 23 3 5 -2 10 -12 10 -14 0 -15 2 -5 9 11 6
10 11 -3 25 -10 9 -15 25 -12 36 3 11 2 18 -3 15 -7 -4 -11 6 -25 58 -2 4 -4
9 -5 12 -1 3 -3 9 -4 14 0 5 -4 12 -8 16 -4 4 -4 13 -2 20 3 7 0 16 -5 20 -6
3 -9 10 -6 15 3 5 1 11 -4 15 -6 3 -7 13 -4 22 4 11 3 14 -5 9 -8 -5 -10 -2
-6 8 3 9 1 16 -5 16 -8 0 -9 5 -3 17 7 12 5 24 -5 40 -8 13 -11 23 -7 23 5 0
2 5 -6 10 -12 8 -13 12 -2 19 11 7 11 9 -1 14 -9 3 -14 16 -13 31 2 14 0 26
-5 26 -5 0 -6 7 -3 15 4 8 1 15 -5 15 -8 0 -9 5 -2 17 6 12 5 21 -7 31 -12 10
-13 11 -2 6 12 -6 13 -4 3 6 -10 11 -10 17 0 29 8 10 8 12 1 8 -7 -4 -15 0
-18 9 -4 10 -2 13 7 8 9 -6 9 -5 0 7 -7 9 -11 25 -8 37 2 12 0 22 -5 22 -4 0
-7 14 -6 31 1 17 -3 41 -10 55 -8 15 -9 26 -3 30 6 4 6 11 -2 20 -9 11 -8 14
2 14 11 0 11 2 0 9 -13 8 -13 12 0 27 12 15 12 17 0 9 -11 -6 -13 -4 -9 7 4 8
2 21 -2 29 -6 8 -4 16 3 21 9 6 9 8 0 8 -6 0 -9 9 -5 22 3 13 1 19 -6 15 -11
-8 -11 11 1 30 4 6 3 14 -3 18 -6 4 -7 11 -3 18 8 13 11 57 3 57 -9 0 -5 184
4 199 6 10 5 12 -3 7 -8 -5 -10 0 -7 19 3 15 8 30 10 33 3 3 1 11 -5 19 -8 9
-8 13 0 13 7 0 8 8 1 24 -5 13 -6 27 -2 30 11 12 11 40 -1 55 -10 12 -9 13 1
7 10 -6 13 -1 10 20 -2 17 3 35 12 42 8 8 9 11 2 7 -10 -5 -11 0 -6 21 5 21 4
25 -7 20 -8 -4 -7 -1 3 6 12 10 13 19 7 31 -7 11 -7 17 0 17 5 0 8 11 6 25 -1
14 2 25 8 25 5 0 3 8 -4 17 -9 11 -10 14 -2 9 9 -5 13 0 13 16 -1 48 5 83 17
96 9 10 10 19 3 32 -7 13 -7 21 1 25 6 4 8 13 5 21 -3 7 2 20 10 29 9 8 11 15
6 15 -5 0 -9 7 -9 15 0 8 5 15 10 15 5 0 7 11 5 25 -3 13 -2 22 3 20 12 -8 17
18 8 37 -6 11 -5 19 3 24 7 5 8 3 3 -6 -5 -8 -4 -11 3 -7 5 4 8 16 5 27 -3 11
-1 20 5 20 6 0 9 9 7 20 -2 11 0 20 5 20 4 0 7 11 5 25 -1 14 2 25 7 25 5 0 6
5 3 10 -3 6 -2 10 3 10 14 0 22 40 9 41 -8 0 -8 2 1 6 6 2 12 11 12 19 0 8 4
14 10 14 5 0 7 7 4 15 -4 8 -1 15 6 15 10 0 10 3 0 15 -10 12 -9 16 2 20 8 3
15 12 16 20 1 8 3 22 4 30 1 8 5 15 10 15 5 0 6 5 3 10 -3 6 1 13 9 16 9 3 14
10 11 14 -6 10 14 72 28 85 7 7 7 5 2 -4 -6 -10 -4 -12 4 -6 9 5 9 11 3 17
-12 12 -4 41 8 33 4 -3 10 2 14 10 3 8 1 15 -5 15 -6 0 -4 7 5 15 8 9 12 23 9
32 -5 12 -2 15 8 11 10 -4 15 1 16 15 1 11 7 23 13 27 7 4 11 11 11 16 -1 18
11 44 20 44 6 0 7 5 4 10 -3 6 -1 10 4 10 6 0 10 3 9 8 -3 14 22 62 32 62 6 0
8 5 4 12 -4 6 1 17 11 25 11 7 15 13 11 13 -4 0 2 13 13 29 11 15 18 31 14 35
-3 3 -1 6 5 6 7 0 12 7 12 15 0 8 8 15 18 15 13 0 14 2 4 9 -11 7 -11 9 2 14
9 4 15 12 14 19 -2 7 3 12 11 10 9 -2 11 3 7 13 -3 9 1 18 10 22 15 5 39 50
36 66 -1 4 3 7 9 7 5 0 7 5 3 12 -5 8 -2 9 11 5 14 -6 16 -3 12 13 -3 11 -1
18 3 15 12 -7 31 30 22 40 -4 5 -1 5 5 1 8 -4 17 2 25 18 6 14 15 26 19 26 4
0 11 9 14 20 3 11 14 20 22 20 9 0 13 3 10 6 -10 10 13 45 24 39 5 -4 8 -2 7
4 -2 5 6 17 17 26 11 9 13 13 5 10 -8 -4 -3 4 12 17 15 14 25 28 21 32 -3 3 1
6 10 6 10 0 17 4 17 9 0 5 25 35 55 66 30 31 55 60 55 66 0 6 5 7 10 4 6 -3
10 -2 10 2 0 5 7 18 16 29 8 10 12 13 8 5 -5 -9 -3 -12 4 -7 7 4 12 13 12 21
0 8 5 17 12 21 7 5 8 3 3 -7 -8 -12 -6 -12 8 0 9 7 17 20 17 29 0 8 3 13 6 9
3 -3 20 9 38 27 17 19 43 41 58 51 15 9 25 21 23 26 -3 5 6 11 20 15 13 3 23
10 20 14 -5 8 24 25 38 22 4 -1 6 2 5 7 -2 5 0 9 5 10 12 1 35 25 31 33 -5 7
36 23 49 20 5 -1 7 1 4 5 -2 5 4 16 15 26 10 9 18 14 18 10 0 -5 10 3 21 17
11 14 17 18 13 10 -4 -8 3 -5 15 8 12 12 26 20 31 17 5 -3 11 4 15 15 3 11 9
19 13 18 14 -3 61 25 56 33 -3 5 1 9 8 9 7 0 37 16 66 35 28 20 52 33 52 30 0
-3 10 4 22 15 12 11 28 18 35 16 7 -3 21 6 32 19 20 26 37 34 26 13 -4 -7 -1
-6 7 3 13 16 56 35 71 31 4 -1 6 4 5 10 -2 8 5 12 16 10 10 -2 15 1 12 7 -3 5
7 12 24 16 16 4 30 11 30 17 0 6 6 5 15 -2 13 -11 14 -10 9 5 -5 11 -3 16 3
12 5 -3 24 3 42 14 18 11 36 17 42 14 5 -4 9 2 9 12 0 15 2 16 10 3 7 -12 10
-12 10 -1 0 7 6 11 15 7 8 -3 15 -1 15 4 0 6 7 10 15 10 8 0 15 4 15 9 0 5 8
8 17 7 10 -2 24 3 31 11 8 7 17 11 22 8 11 -7 61 20 53 29 -4 4 0 4 10 0 9 -3
23 -1 31 5 7 6 16 8 19 4 4 -3 7 -1 7 5 0 7 5 12 11 12 5 0 7 -5 3 -11 -3 -6
6 -3 21 7 15 9 38 19 52 20 13 2 32 9 41 16 13 11 14 11 7 -2 -8 -13 -7 -13 8
-1 10 8 28 15 40 15 12 1 28 5 35 9 6 5 16 6 21 3 5 -3 11 0 14 7 6 15 34 16
56 2 10 -5 12 -4 7 3 -4 7 -4 13 1 13 4 1 17 3 28 5 11 2 29 4 40 6 11 2 26 8
33 15 7 7 19 10 27 6 9 -3 22 0 30 7 13 11 14 10 8 -6 -6 -16 -5 -17 9 -6 9 7
38 15 65 18 75 8 95 13 87 26 -5 7 -3 8 7 2 22 -13 49 -15 49 -3 0 8 4 8 14 0
10 -9 16 -9 21 -1 4 6 13 9 19 7 7 -3 18 -2 25 2 7 5 30 5 52 1 30 -6 37 -5
29 5 -8 9 -4 11 15 7 14 -2 22 -9 19 -16 -3 -6 0 -4 8 4 9 12 23 14 50 9 21
-3 40 -4 43 -1 3 3 23 6 45 8 28 2 38 0 34 -8 -5 -7 -2 -8 7 -3 21 14 60 15
53 3 -5 -7 -2 -8 7 -2 18 11 40 12 63 1 16 -8 18 -6 12 8 -6 16 -5 16 18 1 14
-9 27 -12 30 -7z m-6774 -2199 c0 -5 -2 -10 -4 -10 -3 0 -8 5 -11 10 -3 6 -1
10 4 10 6 0 11 -4 11 -10z m9950 -2494 c0 -2 -7 -7 -16 -10 -8 -3 -12 -2 -9 4
6 10 25 14 25 6z"/>
<path d="M14820 13340 c0 -5 5 -10 11 -10 5 0 7 5 4 10 -3 6 -8 10 -11 10 -2
0 -4 -4 -4 -10z"/>
<path d="M7140 2150 c-9 -6 -10 -10 -3 -10 6 0 15 5 18 10 8 12 4 12 -15 0z"/>
</g>
</svg>
